<svg width="15" height="15" viewBox="0 0 15 15" fill="none" xmlns="http://www.w3.org/2000/svg">
<g clip-path="url(#clip0_24_280)">
<path d="M13.083 7.29163C12.8208 7.29163 12.6082 7.50423 12.6082 7.76644V13.3292H0.949624V1.67057H10.3156C10.5778 1.67057 10.7904 1.45797 10.7904 1.19576C10.7904 0.933549 10.5778 0.720947 10.3156 0.720947H0.474812C0.212602 0.720947 0 0.933549 0 1.19576V13.804C0 14.0662 0.212602 14.2788 0.474812 14.2788H13.083C13.3452 14.2788 13.5578 14.0662 13.5578 13.804V7.76644C13.5578 7.50423 13.3453 7.29163 13.083 7.29163Z" fill="#3AC569"/>
<path d="M14.8609 1.03334C14.6755 0.847936 14.3748 0.847936 14.1894 1.03334L6.45581 8.76697L4.53438 6.84553C4.34894 6.66013 4.04833 6.66013 3.86288 6.84553C3.67748 7.03098 3.67748 7.33159 3.86288 7.51703L6.12007 9.77421C6.21279 9.8669 6.3343 9.91328 6.45581 9.91328C6.57733 9.91328 6.69884 9.8669 6.79156 9.77421L14.8609 1.70484C15.0463 1.5194 15.0463 1.21878 14.8609 1.03334Z" fill="#3AC569"/>
</g>
<defs>
<clipPath id="clip0_24_280">
<rect width="15" height="15" fill="white"/>
</clipPath>
</defs>
</svg>
