<svg width="40" height="43" viewBox="0 0 40 43" fill="none" xmlns="http://www.w3.org/2000/svg">
<path d="M31.8 33.2219C31.28 31.5321 29.78 30.2859 28 30.2859H26V23.9491C26 23.3889 25.7893 22.8517 25.4142 22.4556C25.0391 22.0594 24.5304 21.8369 24 21.8369H12V17.6124H16C16.5304 17.6124 17.0391 17.3899 17.4142 16.9937C17.7893 16.5976 18 16.0604 18 15.5002V11.2757H22C23.0609 11.2757 24.0783 10.8306 24.8284 10.0383C25.5786 9.24608 26 8.17157 26 7.05116V6.18514C31.86 8.67759 36 14.7397 36 21.8369C36 26.2304 34.4 30.2225 31.8 33.2219ZM18 38.587C10.1 37.552 4 30.4549 4 21.8369C4 20.5273 4.16 19.26 4.42 18.056L14 28.1736V30.2859C14 31.4063 14.4214 32.4808 15.1716 33.2731C15.9217 34.0653 16.9391 34.5104 18 34.5104M20 0.714417C17.3736 0.714417 14.7728 1.26077 12.3463 2.32227C9.91982 3.38377 7.71504 4.93964 5.85786 6.90105C2.10714 10.8623 0 16.2349 0 21.8369C0 27.4389 2.10714 32.8115 5.85786 36.7727C7.71504 38.7341 9.91982 40.29 12.3463 41.3515C14.7728 42.413 17.3736 42.9594 20 42.9594C25.3043 42.9594 30.3914 40.734 34.1421 36.7727C37.8929 32.8115 40 27.4389 40 21.8369C40 19.0631 39.4827 16.3164 38.4776 13.7537C37.4725 11.191 35.9993 8.86245 34.1421 6.90105C32.285 4.93964 30.0802 3.38377 27.6537 2.32227C25.2272 1.26077 22.6264 0.714417 20 0.714417Z" fill="#3AC569"/>
</svg>
