<svg width="34" height="55" viewBox="0 0 34 55" fill="none" xmlns="http://www.w3.org/2000/svg">
<path d="M21.8571 0.433777H4.85714C3.56895 0.433777 2.33351 0.97423 1.42262 1.93624C0.511733 2.89826 0 4.20303 0 5.56352V41.4717C0 42.8322 0.511733 44.137 1.42262 45.099C2.33351 46.061 3.56895 46.6015 4.85714 46.6015H12.1429V54.2961L17 51.7312L21.8571 54.2961V46.6015H29.1429C30.4311 46.6015 31.6665 46.061 32.5774 45.099C33.4883 44.137 34 42.8322 34 41.4717V13.2581M21.8571 33.7771V38.9069L17 36.342L12.1429 38.9069V33.7771L7.28571 31.2122L12.1429 28.6474V23.5176L17 26.0825L21.8571 23.5176V28.6474L26.7143 31.2122M19.4286 15.823V4.28109L30.3571 15.823H19.4286Z" fill="#3AC569"/>
</svg>
