<svg width="26" height="21" viewBox="0 0 26 21" fill="none" xmlns="http://www.w3.org/2000/svg">
<path d="M23.7834 0.185394C23.7834 0.185394 26.1886 -0.723605 25.9881 1.48397C25.9213 2.39298 25.3201 5.57448 24.8524 9.01571L23.2489 19.2095C23.2489 19.2095 23.1153 20.7029 21.9127 20.9626C20.7101 21.2223 18.9062 20.0536 18.5721 19.7939C18.3049 19.5991 13.5614 16.6773 11.891 15.2489C11.4234 14.8593 10.8889 14.0801 11.9578 13.1711L18.973 6.6783C19.7747 5.89914 20.5765 4.08114 17.2359 6.28872L7.8824 12.457C7.8824 12.457 6.81343 13.1062 4.80914 12.5219L0.466404 11.2233C0.466404 11.2233 -1.13706 10.2494 1.60219 9.27539C8.2833 6.22374 16.501 3.10716 23.7834 0.185394Z" fill="white"/>
</svg>
