<svg width="16" height="16" viewBox="0 0 16 16" fill="none" xmlns="http://www.w3.org/2000/svg">
<path d="M12.6667 2.66665H11.3333V1.99998C11.3333 1.82317 11.2631 1.6536 11.1381 1.52858C11.013 1.40355 10.8435 1.33331 10.6667 1.33331C10.4899 1.33331 10.3203 1.40355 10.1953 1.52858C10.0702 1.6536 9.99999 1.82317 9.99999 1.99998V2.66665H5.99999V1.99998C5.99999 1.82317 5.92976 1.6536 5.80473 1.52858C5.67971 1.40355 5.51014 1.33331 5.33333 1.33331C5.15652 1.33331 4.98695 1.40355 4.86192 1.52858C4.7369 1.6536 4.66666 1.82317 4.66666 1.99998V2.66665H3.33333C2.8029 2.66665 2.29419 2.87736 1.91911 3.25243C1.54404 3.62751 1.33333 4.13621 1.33333 4.66665V12.6666C1.33333 13.1971 1.54404 13.7058 1.91911 14.0809C2.29419 14.4559 2.8029 14.6666 3.33333 14.6666H12.6667C13.1971 14.6666 13.7058 14.4559 14.0809 14.0809C14.4559 13.7058 14.6667 13.1971 14.6667 12.6666V4.66665C14.6667 4.13621 14.4559 3.62751 14.0809 3.25243C13.7058 2.87736 13.1971 2.66665 12.6667 2.66665ZM13.3333 12.6666C13.3333 12.8435 13.2631 13.013 13.1381 13.1381C13.013 13.2631 12.8435 13.3333 12.6667 13.3333H3.33333C3.15652 13.3333 2.98695 13.2631 2.86192 13.1381C2.7369 13.013 2.66666 12.8435 2.66666 12.6666V7.99998H13.3333V12.6666ZM13.3333 6.66665H2.66666V4.66665C2.66666 4.48984 2.7369 4.32027 2.86192 4.19524C2.98695 4.07022 3.15652 3.99998 3.33333 3.99998H4.66666V4.66665C4.66666 4.84346 4.7369 5.01303 4.86192 5.13805C4.98695 5.26307 5.15652 5.33331 5.33333 5.33331C5.51014 5.33331 5.67971 5.26307 5.80473 5.13805C5.92976 5.01303 5.99999 4.84346 5.99999 4.66665V3.99998H9.99999V4.66665C9.99999 4.84346 10.0702 5.01303 10.1953 5.13805C10.3203 5.26307 10.4899 5.33331 10.6667 5.33331C10.8435 5.33331 11.013 5.26307 11.1381 5.13805C11.2631 5.01303 11.3333 4.84346 11.3333 4.66665V3.99998H12.6667C12.8435 3.99998 13.013 4.07022 13.1381 4.19524C13.2631 4.32027 13.3333 4.48984 13.3333 4.66665V6.66665Z" fill="#3AC569"/>
</svg>
