<svg width="13" height="21" viewBox="0 0 13 21" fill="none" xmlns="http://www.w3.org/2000/svg">
<path fill-rule="evenodd" clip-rule="evenodd" d="M13 6.8093C13 3.10486 10.1889 0 6.5052 0C2.82152 0 0 3.10697 0 6.81246C0 8.0348 0.16848 8.95683 0.73996 10.0106H0.72904L6.29044 20.8752C6.49948 21.1655 6.71892 20.8583 6.71892 20.8583C6.5312 21.1434 12.2803 10.0106 12.2803 10.0106H12.2756C12.8414 8.95683 13 8.03269 13 6.8093ZM3.51052 6.60066C3.51052 4.85302 4.8516 3.43731 6.5052 3.43731C8.15828 3.43731 9.5004 4.85302 9.5004 6.60066C9.5004 8.34829 8.15828 9.76452 6.5052 9.76452C4.8516 9.76452 3.51052 8.34882 3.51052 6.60066Z" fill="#3AC569"/>
</svg>
