<svg width="21" height="23" viewBox="0 0 21 23" fill="none" xmlns="http://www.w3.org/2000/svg">
<path d="M15.3958 14.4617C13.4373 13.6613 13.1109 12.9142 13.1109 12.1137C13.1109 11.3132 13.6549 10.5661 14.3078 9.97912C15.4502 8.9652 16.103 7.52436 16.103 5.81671C16.103 2.72158 14.0901 0 10.554 0C7.01787 0 5.00499 2.66821 5.00499 5.81671C5.00499 7.52436 5.65782 8.91183 6.80026 9.97912C7.45309 10.5661 7.99711 11.3132 7.99711 12.1137C7.99711 12.9142 7.6707 13.6613 5.71222 14.4617C2.82891 15.6357 0.0544021 17.1299 0 19.6914C0 21.3457 1.30565 23 2.93771 23H10.4996H18.0615C19.748 23 20.9992 21.3457 20.9992 19.6914C21.0536 17.1833 18.2791 15.6891 15.3958 14.4617Z" fill="white"/>
</svg>
