<svg width="14" height="14" viewBox="0 0 14 14" fill="none" xmlns="http://www.w3.org/2000/svg">
<path d="M2.81556 6.05889C3.93556 8.26 5.74 10.0644 7.94111 11.1844L9.65222 9.47333C9.87 9.25556 10.1733 9.19333 10.4456 9.27889C11.3167 9.56667 12.25 9.72222 13.2222 9.72222C13.4285 9.72222 13.6263 9.80417 13.7722 9.95003C13.9181 10.0959 14 10.2937 14 10.5V13.2222C14 13.4285 13.9181 13.6263 13.7722 13.7722C13.6263 13.9181 13.4285 14 13.2222 14C9.71547 14 6.35235 12.6069 3.8727 10.1273C1.39305 7.64765 0 4.28453 0 0.777778C0 0.571498 0.0819442 0.373667 0.227806 0.227806C0.373667 0.0819442 0.571498 0 0.777778 0H3.5C3.70628 0 3.90411 0.0819442 4.04997 0.227806C4.19583 0.373667 4.27778 0.571498 4.27778 0.777778C4.27778 1.75 4.43333 2.68333 4.72111 3.55444C4.80667 3.82667 4.74444 4.13 4.52667 4.34778L2.81556 6.05889Z" fill="white" fill-opacity="0.7"/>
</svg>
