<svg width="55" height="39" viewBox="0 0 55 39" fill="none" xmlns="http://www.w3.org/2000/svg">
<path d="M5.58267 34.3279V34.2697C5.98541 34.1726 6.3094 33.9556 6.55555 33.6178C6.8008 33.2795 6.92454 32.8714 6.92454 32.3948C6.92454 31.6695 6.6424 31.1352 6.07721 30.7911C5.51382 30.4471 4.64983 30.2761 3.48615 30.2761H0.5V38.7886H3.83174C4.83973 38.7886 5.63441 38.5667 6.21805 38.1219C6.80169 37.6776 7.09329 37.0686 7.09329 36.2976C7.09329 35.7767 6.97449 35.3539 6.73645 35.0273C6.4984 34.7011 6.11456 34.4675 5.58267 34.3279ZM2.81341 32.0163H3.46275C4.18949 32.0163 4.55263 32.2543 4.55263 32.7322C4.55263 33.0012 4.46218 33.203 4.28039 33.3381C4.09859 33.4746 3.84164 33.5426 3.51045 33.5426H2.81341V32.0163ZM3.627 37.0126H2.81341V35.2246H3.58065C3.94694 35.2246 4.22774 35.3006 4.42078 35.4519C4.61383 35.6031 4.71103 35.8206 4.71103 36.1047C4.71058 36.7097 4.34969 37.0126 3.627 37.0126Z" fill="black"/>
<path d="M13.0674 35.2603C13.0674 35.8725 12.9612 36.3137 12.7475 36.5844C12.5355 36.8546 12.1931 36.9884 11.7201 36.9884C11.2796 36.9884 10.9457 36.852 10.7189 36.5812C10.4921 36.3101 10.3787 35.8725 10.3787 35.2711V30.2756H8.05403V35.4514C8.05403 36.5656 8.36678 37.4189 8.99452 38.0145C9.62046 38.6087 10.5177 38.9045 11.685 38.9045C12.8802 38.9045 13.7946 38.5993 14.4291 37.9876C15.0636 37.3759 15.3808 36.5132 15.3808 35.3991V30.2756H13.0674V35.2603Z" fill="black"/>
<path d="M18.8592 32.151C18.9965 32.0458 19.2152 31.993 19.5158 31.993C20.0967 31.993 20.7875 32.1756 21.588 32.5407L22.2963 30.7643C21.3752 30.3567 20.4716 30.1531 19.586 30.1531C18.5825 30.1531 17.7941 30.3719 17.2199 30.8113C16.6457 31.2502 16.3586 31.8615 16.3586 32.6463C16.3586 33.0651 16.4261 33.4285 16.5607 33.7354C16.6952 34.0424 16.9027 34.314 17.1821 34.5498C17.4607 34.7874 17.8792 35.0313 18.4381 35.2841C19.0541 35.5602 19.4348 35.7419 19.5761 35.8313C19.7192 35.9204 19.8222 36.0085 19.887 36.0971C19.9514 36.1835 19.9838 36.2864 19.9838 36.4027C19.9838 36.5898 19.9028 36.7419 19.743 36.8596C19.5837 36.9791 19.3317 37.0368 18.9879 37.0368C18.5897 37.0368 18.1523 36.9737 17.6758 36.848C17.2001 36.7213 16.7407 36.5464 16.2992 36.3209V38.3702C16.7177 38.568 17.1191 38.7076 17.5061 38.7864C17.8927 38.8669 18.371 38.9063 18.9411 38.9063C19.6242 38.9063 20.22 38.7926 20.7263 38.5653C21.2343 38.3389 21.6227 38.0199 21.8926 37.6109C22.1617 37.201 22.2958 36.7325 22.2958 36.2045C22.2958 35.6295 22.1527 35.1525 21.8661 34.7749C21.5786 34.3963 21.0665 34.0424 20.3289 33.7122C19.559 33.3636 19.0878 33.1224 18.9146 32.9904C18.7405 32.8584 18.6536 32.709 18.6536 32.5421C18.6545 32.3846 18.7229 32.2543 18.8592 32.151Z" fill="black"/>
<path d="M25.4651 30.2756H23.1405V38.7881H25.4651V30.2756Z" fill="black"/>
<path d="M32.9269 34.1243C32.9269 34.6438 32.9539 35.3333 33.0093 36.1906H32.9742L29.8575 30.2748H26.8363V38.7877H28.886V34.9507C28.886 34.4549 28.8491 33.7341 28.7753 32.7904H28.8266L31.9536 38.7881H34.9874V30.2757H32.9265V34.1243H32.9269Z" fill="black"/>
<path d="M36.3581 38.7886H41.4412V36.9133H38.6711V35.3064H41.2365V33.4607H38.6711V32.1214H41.4412V30.2756H36.3581V38.7886Z" fill="black"/>
<path d="M44.6222 32.151C44.7586 32.0458 44.9773 31.993 45.2779 31.993C45.8588 31.993 46.5504 32.1756 47.3501 32.5407L48.0584 30.7643C47.1372 30.3567 46.2332 30.1531 45.3472 30.1531C44.3441 30.1531 43.5562 30.3719 42.982 30.8113C42.4078 31.2502 42.1207 31.8615 42.1207 32.6463C42.1207 33.0651 42.1882 33.4285 42.3228 33.7354C42.4582 34.0424 42.6648 34.314 42.9442 34.5498C43.2227 34.7874 43.6421 35.0313 44.2001 35.2841C44.8171 35.5602 45.196 35.7418 45.3391 35.8313C45.4808 35.9204 45.5852 36.0085 45.6487 36.0971C45.7135 36.1835 45.7454 36.2864 45.7454 36.4027C45.7454 36.5898 45.6653 36.7419 45.506 36.8596C45.3463 36.9777 45.0943 37.0359 44.75 37.0359C44.3518 37.0359 43.9148 36.9728 43.4378 36.8471C42.9609 36.7204 42.5037 36.5455 42.0618 36.32V38.3693C42.4798 38.5671 42.8817 38.7067 43.2691 38.7855C43.6543 38.866 44.1331 38.9054 44.7037 38.9054C45.3868 38.9054 45.9816 38.7917 46.4897 38.5644C46.9968 38.338 47.3852 38.019 47.6552 37.61C47.9252 37.2001 48.0584 36.7316 48.0584 36.2036C48.0584 35.6286 47.9153 35.1517 47.6286 34.774C47.3406 34.3954 46.8299 34.0415 46.0915 33.7113C45.3224 33.3627 44.8504 33.1215 44.6767 32.9895C44.5025 32.8575 44.4157 32.7081 44.4157 32.5412C44.4166 32.3846 44.485 32.2543 44.6222 32.151Z" fill="black"/>
<path d="M52.5331 33.7104C51.764 33.3623 51.2929 33.1211 51.1188 32.9891C50.9446 32.8571 50.8587 32.7076 50.8587 32.5407C50.8587 32.3846 50.9262 32.2543 51.0634 32.151C51.1998 32.0458 51.4185 31.993 51.719 31.993C52.3009 31.993 52.9916 32.1756 53.7917 32.5407L54.5 30.7643C53.5789 30.3567 52.6739 30.1531 51.7892 30.1531C50.7858 30.1531 49.9974 30.3719 49.4227 30.8113C48.8481 31.2507 48.5628 31.8615 48.5628 32.6463C48.5628 33.0651 48.6289 33.4285 48.7644 33.7354C48.898 34.0424 49.1059 34.314 49.3849 34.5498C49.6635 34.7874 50.0824 35.0313 50.6409 35.2841C51.2578 35.5602 51.638 35.7419 51.7798 35.8313C51.9215 35.9208 52.0259 36.0085 52.0894 36.0971C52.1542 36.1835 52.1861 36.2864 52.1861 36.4027C52.1861 36.5898 52.106 36.7419 51.9467 36.8596C51.7865 36.9791 51.5346 37.0368 51.1903 37.0368C50.7921 37.0368 50.356 36.9737 49.879 36.848C49.4025 36.7213 48.9439 36.5464 48.5025 36.3209V38.3702C48.9201 38.568 49.3224 38.7076 49.7085 38.7864C50.095 38.8669 50.5743 38.9063 51.1435 38.9063C51.8266 38.9063 52.4224 38.7926 52.9295 38.5653C53.4367 38.3389 53.8259 38.0199 54.095 37.6109C54.3646 37.201 54.4991 36.7325 54.4991 36.2045C54.4991 35.6295 54.3551 35.1525 54.0685 34.7749C53.7827 34.3954 53.2706 34.0415 52.5331 33.7104Z" fill="black"/>
<path d="M33.6145 7.08649C35.3221 7.08649 36.7064 5.70999 36.7064 4.012C36.7064 2.314 35.3221 0.9375 33.6145 0.9375C31.9069 0.9375 30.5226 2.314 30.5226 4.012C30.5226 5.70999 31.9069 7.08649 33.6145 7.08649Z" fill="black"/>
<path d="M43.8343 7.08735C45.5419 7.08735 46.9262 5.71085 46.9262 4.01285C46.9262 2.31485 45.5419 0.938354 43.8343 0.938354C42.1267 0.938354 40.7424 2.31485 40.7424 4.01285C40.7424 5.71085 42.1267 7.08735 43.8343 7.08735Z" fill="black"/>
<path d="M45.7801 27.8809C45.7805 28.7798 46.5135 29.5074 47.4171 29.5074H47.4189C48.3225 29.5069 49.0555 28.7776 49.0546 27.8786L49.0528 25.6597H45.7796L45.7801 27.8809Z" fill="black"/>
<path d="M28.4009 17.6367L28.3941 27.8782C28.3932 28.7776 29.1263 29.507 30.0307 29.5074C30.0307 29.5074 30.0312 29.5074 30.0316 29.5074C30.9352 29.5074 31.6683 28.7789 31.6692 27.8804L31.6746 18.1898C32.3514 17.9222 32.9229 17.4032 33.0974 16.5928L33.6388 14.0808C34.5001 15.0804 35.9225 15.654 38.4587 15.999C38.514 16.0066 38.5685 16.0102 38.6229 16.0102C39.1287 16.0102 39.5769 15.6903 39.7474 15.2222C41.7328 15.118 42.9644 14.7113 43.7654 13.8736L44.3522 16.5937C44.5043 17.2976 44.9566 17.7813 45.5163 18.0726H46.2948C46.4627 17.6032 46.8011 17.2161 47.247 16.9857C46.8416 15.0589 46.2773 13.1653 45.7931 12.0144C45.4628 11.4099 45.924 11.2018 46.1693 11.8287C46.4159 12.4561 47.3352 15.3144 47.7114 17.1835C47.144 17.3571 46.7088 17.8341 46.6089 18.4265H44.2973V25.2176H53.5456V18.4261H51.2344C51.1323 17.8287 50.6913 17.349 50.1175 17.179C50.1238 17.0801 50.122 16.9808 50.1018 16.8792C49.9488 16.1015 48.0709 8.7748 48.0709 8.7748C47.8046 7.53847 46.9442 6.94469 45.8736 6.91427L45.8642 6.91471C45.8642 6.91471 45.4862 6.9165 45.1613 6.9787C44.8202 7.04358 44.5228 7.20601 44.5228 7.20601C43.7335 7.5868 42.9788 8.37298 42.8857 9.32786C42.874 9.37395 42.8582 9.41825 42.8515 9.46702C42.6431 10.9257 42.4339 11.8502 41.9848 12.2569C41.5222 12.6767 40.48 12.8632 38.609 12.8632C38.1756 12.8632 37.8003 13.0937 37.5884 13.4355C36.4589 13.2064 35.7929 12.9156 35.4415 12.5106C34.9843 11.9858 34.8173 11.0099 34.5968 9.46613C34.5896 9.4178 34.5748 9.37261 34.5626 9.32652C34.4704 8.37209 33.7153 7.58501 32.926 7.20467C32.926 7.20467 32.6281 7.04224 32.2879 6.97736C31.9617 6.91516 31.585 6.91337 31.585 6.91337L31.5756 6.91248C30.5046 6.94335 29.2442 7.53713 28.9782 8.77301L27.5486 15.4093C27.3578 16.2957 27.756 17.0891 28.4009 17.6367ZM48.9201 18.303C48.9966 18.303 49.074 18.295 49.1523 18.2802C49.4124 18.2296 49.6338 18.0963 49.8007 17.9164C50.0829 17.9652 50.3124 18.1638 50.4073 18.4261H47.4351C47.5301 18.1638 47.7596 17.9661 48.0408 17.9173C48.2635 18.1571 48.5799 18.303 48.9201 18.303Z" fill="black"/>
</svg>
