<svg width="44" height="38" viewBox="0 0 44 38" fill="none" xmlns="http://www.w3.org/2000/svg">
<path d="M41.1755 0.78125H2.63322C1.42329 0.78125 0.40625 1.80326 0.40625 3.01909V28.675C0.40625 29.8908 1.42329 30.9128 2.63322 30.9128H16.5737V34.6484H13.0316C12.4178 34.6484 11.9093 35.1595 11.9093 35.7762V35.9348C11.9093 36.5515 12.4178 37.0625 13.0316 37.0625H30.8122C31.4259 37.0625 31.9344 36.5515 31.9344 35.9348V35.7762C31.9344 35.1595 31.4259 34.6484 30.8122 34.6484H27.2701V30.9128H41.2105C42.4205 30.9128 43.4375 29.8908 43.4375 28.675V3.01909C43.4024 1.78564 42.3854 0.78125 41.1755 0.78125ZM21.9043 29.556C21.2029 29.5737 20.6243 28.9922 20.6243 28.2697C20.6243 27.5649 21.2029 26.9834 21.9043 26.9834C22.6057 26.9834 23.1844 27.5649 23.1844 28.2697C23.1844 28.9746 22.6057 29.556 21.9043 29.556ZM40.6669 25.979H3.24695V3.56534H40.6845V25.979H40.6669Z" fill="black"/>
<path d="M30.1634 14.7546L23.1318 18.5078L17.1172 6.15564L8.34967 23.3888H35.7571L30.1634 14.7546Z" fill="black"/>
<path d="M32.3027 13.3449C34.0265 13.3449 35.4239 11.9406 35.4239 10.2084C35.4239 8.47616 34.0265 7.0719 32.3027 7.0719C30.5789 7.0719 29.1814 8.47616 29.1814 10.2084C29.1814 11.9406 30.5789 13.3449 32.3027 13.3449Z" fill="black"/>
</svg>
