<svg width="86" height="13" viewBox="0 0 86 13" fill="none" xmlns="http://www.w3.org/2000/svg">
<path d="M7 9.16158L4.368 10.7147L5.061 7.78632L2.737 5.81579L5.803 5.56263L7 2.79842L8.197 5.56263L11.263 5.81579L8.939 7.78632L9.632 10.7147M14 4.95368L8.967 4.53632L7 0L5.033 4.53632L0 4.95368L3.815 8.19L2.674 13L7 10.4479L11.326 13L10.178 8.19L14 4.95368Z" fill="#3AC569"/>
<path d="M25 9.16158L22.368 10.7147L23.061 7.78632L20.737 5.81579L23.803 5.56263L25 2.79842L26.197 5.56263L29.263 5.81579L26.939 7.78632L27.632 10.7147M32 4.95368L26.967 4.53632L25 0L23.033 4.53632L18 4.95368L21.815 8.19L20.674 13L25 10.4479L29.326 13L28.178 8.19L32 4.95368Z" fill="#3AC569"/>
<path d="M43 9.16158L40.368 10.7147L41.061 7.78632L38.737 5.81579L41.803 5.56263L43 2.79842L44.197 5.56263L47.263 5.81579L44.939 7.78632L45.632 10.7147M50 4.95368L44.967 4.53632L43 0L41.033 4.53632L36 4.95368L39.815 8.19L38.674 13L43 10.4479L47.326 13L46.178 8.19L50 4.95368Z" fill="#3AC569"/>
<path d="M61 9.16158L58.368 10.7147L59.061 7.78632L56.737 5.81579L59.803 5.56263L61 2.79842L62.197 5.56263L65.263 5.81579L62.939 7.78632L63.632 10.7147M68 4.95368L62.967 4.53632L61 0L59.033 4.53632L54 4.95368L57.815 8.19L56.674 13L61 10.4479L65.326 13L64.178 8.19L68 4.95368Z" fill="#3AC569"/>
<path d="M79 9.16158L76.368 10.7147L77.061 7.78632L74.737 5.81579L77.803 5.56263L79 2.79842L80.197 5.56263L83.263 5.81579L80.939 7.78632L81.632 10.7147M86 4.95368L80.967 4.53632L79 0L77.033 4.53632L72 4.95368L75.815 8.19L74.674 13L79 10.4479L83.326 13L82.178 8.19L86 4.95368Z" fill="#3AC569"/>
</svg>
