<svg width="23" height="16" viewBox="0 0 23 16" fill="none" xmlns="http://www.w3.org/2000/svg">
<path d="M20.1906 0H2.8094C1.26037 0 0 1.29149 0 2.87879V13.1212C0 14.7085 1.26037 16 2.8094 16H20.1906C21.7396 16 23 14.7085 23 13.1212V2.8791C23.0003 1.29149 21.7399 0 20.1906 0ZM18.8178 1.87808L11.5 6.70913L4.18218 1.87808H18.8178ZM20.1906 14.1222H2.8094C2.27086 14.1222 1.83282 13.6731 1.83282 13.1215V2.93231L10.9346 8.92965C10.9468 8.93748 10.9599 8.9428 10.9725 8.95C10.9856 8.95751 10.999 8.96471 11.0125 8.97159C11.083 9.00884 11.1557 9.03889 11.23 9.05861C11.2376 9.0608 11.2452 9.06174 11.2529 9.06362C11.3344 9.08334 11.4169 9.09555 11.4994 9.09555C11.4997 9.09555 11.5 9.09555 11.5 9.09555C11.5006 9.09555 11.5009 9.09555 11.5012 9.09555C11.5837 9.09555 11.6662 9.08365 11.7477 9.06362C11.7554 9.06174 11.763 9.0608 11.7706 9.05861C11.8449 9.03889 11.9173 9.00884 11.9881 8.97159C12.0016 8.96471 12.015 8.95751 12.0282 8.95C12.0407 8.9428 12.0538 8.93748 12.066 8.92965L21.1678 2.93231V13.1212C21.1675 13.6731 20.7291 14.1222 20.1906 14.1222Z" fill="black" fill-opacity="0.5"/>
</svg>
