<svg width="21" height="16" viewBox="0 0 21 16" fill="none" xmlns="http://www.w3.org/2000/svg">
<path d="M19.25 0H1.75C0.79625 0.0355556 0.035 0.808889 0 1.77778V14.2222C0.035 15.1911 0.79625 15.9644 1.75 16H19.25C20.2038 15.9644 20.965 15.1911 21 14.2222V1.77778C20.965 0.808889 20.2038 0.0355556 19.25 0ZM19.25 14.2222H1.75V1.77778H19.25V14.2222ZM12.25 12.4444V11.3333C12.25 9.85778 9.3275 9.11111 7.875 9.11111C6.4225 9.11111 3.5 9.85778 3.5 11.3333V12.4444H12.25ZM7.875 3.55556C7.29484 3.55556 6.73844 3.78968 6.3282 4.20643C5.91797 4.62318 5.6875 5.18841 5.6875 5.77778C5.6875 6.0696 5.74408 6.35857 5.85401 6.62819C5.96395 6.8978 6.12508 7.14277 6.3282 7.34913C6.73844 7.76587 7.29484 8 7.875 8C8.16227 8 8.44672 7.94252 8.71212 7.83084C8.97752 7.71917 9.21867 7.55548 9.4218 7.34913C9.62492 7.14277 9.78605 6.8978 9.89599 6.62819C10.0059 6.35857 10.0625 6.0696 10.0625 5.77778C10.0625 5.48595 10.0059 5.19698 9.89599 4.92737C9.78605 4.65776 9.62492 4.41278 9.4218 4.20643C9.21867 4.00008 8.97752 3.83639 8.71212 3.72471C8.44672 3.61303 8.16227 3.55556 7.875 3.55556ZM12.25 3.55556V4.44444H17.5V3.55556H12.25ZM12.25 5.33333V6.22222H17.5V5.33333H12.25ZM12.25 7.11111V8H15.75V7.11111H12.25Z" fill="black" fill-opacity="0.5"/>
</svg>
