<svg width="14" height="9" viewBox="0 0 14 9" fill="none" xmlns="http://www.w3.org/2000/svg">
<path d="M10.15 6.75C11.354 6.75 12.775 7.26429 12.95 7.57286V8.03571H7.35V7.57286C7.525 7.26429 8.946 6.75 10.15 6.75ZM10.15 5.78571C8.869 5.78571 6.3 6.37714 6.3 7.55357V9H14V7.55357C14 6.37714 11.431 5.78571 10.15 5.78571ZM4.9 5.14286C3.269 5.14286 0 5.895 0 7.39286V9H4.9V8.03571H1.05V7.39286C1.05 6.98786 3.003 6.00429 5.474 6.10714C5.77492 5.77666 6.14356 5.50364 6.559 5.30357C6.01298 5.20073 5.45737 5.14691 4.9 5.14286ZM4.9 0.964286C5.10767 0.964286 5.31068 1.02084 5.48335 1.1268C5.65602 1.23275 5.7906 1.38336 5.87007 1.55956C5.94955 1.73576 5.97034 1.92964 5.92982 2.11669C5.88931 2.30375 5.78931 2.47557 5.64246 2.61042C5.49562 2.74528 5.30853 2.83712 5.10485 2.87433C4.90117 2.91154 4.69004 2.89244 4.49818 2.81946C4.30632 2.74647 4.14233 2.62288 4.02696 2.4643C3.91158 2.30572 3.85 2.11929 3.85 1.92857C3.85 1.67283 3.96062 1.42756 4.15754 1.24672C4.35445 1.06588 4.62152 0.964286 4.9 0.964286ZM4.9 0C4.48466 0 4.07865 0.113109 3.7333 0.325023C3.38796 0.536937 3.1188 0.838139 2.95985 1.19054C2.80091 1.54294 2.75932 1.93071 2.84035 2.30482C2.92138 2.67892 3.12139 3.02256 3.41508 3.29228C3.70877 3.56199 4.08295 3.74567 4.49031 3.82009C4.89767 3.8945 5.31991 3.85631 5.70364 3.71034C6.08736 3.56437 6.41534 3.31718 6.64609 3.00003C6.87684 2.68288 7 2.31001 7 1.92857C7 1.41708 6.77875 0.926543 6.38492 0.564866C5.9911 0.203188 5.45695 0 4.9 0ZM10.15 2.25C10.2884 2.25 10.4238 2.2877 10.5389 2.35834C10.654 2.42898 10.7437 2.52938 10.7967 2.64685C10.8497 2.76431 10.8636 2.89357 10.8365 3.01827C10.8095 3.14297 10.7429 3.25752 10.645 3.34743C10.5471 3.43733 10.4223 3.49856 10.2866 3.52336C10.1508 3.54817 10.01 3.53544 9.88212 3.48678C9.75421 3.43812 9.64489 3.35573 9.56797 3.25001C9.49105 3.14429 9.45 3.02 9.45 2.89286C9.45 2.72236 9.52375 2.55885 9.65503 2.43829C9.7863 2.31773 9.96435 2.25 10.15 2.25ZM10.15 1.28571C9.80388 1.28571 9.46554 1.37997 9.17775 1.55657C8.88997 1.73316 8.66566 1.98416 8.53321 2.27783C8.40076 2.5715 8.3661 2.89464 8.43363 3.2064C8.50115 3.51815 8.66782 3.80452 8.91256 4.02928C9.1573 4.25404 9.46912 4.40711 9.80859 4.46912C10.1481 4.53113 10.4999 4.4993 10.8197 4.37766C11.1395 4.25602 11.4128 4.05003 11.6051 3.78574C11.7974 3.52144 11.9 3.21072 11.9 2.89286C11.9 2.46662 11.7156 2.05783 11.3874 1.75644C11.0592 1.45504 10.6141 1.28571 10.15 1.28571Z" fill="#3AC569"/>
</svg>
