<svg width="32" height="21" viewBox="0 0 32 21" fill="none" xmlns="http://www.w3.org/2000/svg">
<path d="M32 9.29655H29.0909V6.39247H26.1818V9.29655H23.2727V12.2006H26.1818V15.1047H29.0909V12.2006H32M10.1818 9.29655V12.7814H16C15.7091 14.2335 14.2545 17.1375 10.1818 17.1375C6.69091 17.1375 3.92727 14.2335 3.92727 10.7486C3.92727 7.26369 6.69091 4.35962 10.1818 4.35962C12.2182 4.35962 13.5273 5.23084 14.2545 5.95686L17.0182 3.34319C15.2727 1.60075 12.9455 0.58432 10.1818 0.58432C4.50909 0.58432 0 5.08564 0 10.7486C0 16.4115 4.50909 20.9128 10.1818 20.9128C16 20.9128 19.9273 16.8471 19.9273 11.039C19.9273 10.313 19.9273 9.87736 19.7818 9.29655H10.1818Z" fill="white"/>
</svg>
