<svg width="23" height="23" viewBox="0 0 23 23" fill="none" xmlns="http://www.w3.org/2000/svg">
<path d="M8.096 22.3688C9.2 22.6916 10.3155 22.8809 11.5 22.8809C14.55 22.8809 17.4751 21.708 19.6317 19.6203C21.7884 17.5326 23 14.7011 23 11.7486C23 10.2867 22.7025 8.83908 22.1246 7.48845C21.5467 6.13782 20.6996 4.9106 19.6317 3.87687C18.5639 2.84315 17.2961 2.02315 15.9009 1.4637C14.5056 0.904248 13.0102 0.616302 11.5 0.616302C9.9898 0.616302 8.49438 0.904248 7.09914 1.4637C5.7039 2.02315 4.43615 2.84315 3.36827 3.87687C1.2116 5.96458 0 8.79612 0 11.7486C0 16.4798 3.0705 20.5431 7.406 22.1461C7.3025 21.2778 7.199 19.8418 7.406 18.851L8.7285 13.3516C8.7285 13.3516 8.395 12.706 8.395 11.6818C8.395 10.1455 9.384 8.99891 10.511 8.99891C11.5 8.99891 11.96 9.70025 11.96 10.602C11.96 11.5593 11.3045 12.9286 10.971 14.2422C10.7755 15.3332 11.569 16.2906 12.719 16.2906C14.766 16.2906 16.353 14.1754 16.353 11.192C16.353 8.52023 14.375 6.69453 11.5345 6.69453C8.2915 6.69453 6.3825 9.03231 6.3825 11.4925C6.3825 12.4499 6.7045 13.4184 7.2335 14.053C7.337 14.1198 7.337 14.2088 7.3025 14.3758L6.969 15.5892C6.969 15.7785 6.8425 15.8453 6.647 15.7117C5.175 15.0883 4.324 13.0622 4.324 11.4258C4.324 7.90795 6.9 4.71298 11.868 4.71298C15.824 4.71298 18.906 7.46266 18.906 11.114C18.906 14.9436 16.4565 18.0161 12.949 18.0161C11.8335 18.0161 10.741 17.4372 10.35 16.7581L9.5795 19.3965C9.315 20.3538 8.5905 21.6341 8.096 22.4022V22.3688Z" fill="white"/>
</svg>
