<svg width="23" height="20" viewBox="0 0 23 20" fill="none" xmlns="http://www.w3.org/2000/svg">
<path d="M23 2.86203C22.1534 3.26062 21.2409 3.52256 20.2954 3.64783C21.2629 3.04424 22.0105 2.08761 22.3623 0.937364C21.4498 1.50679 20.4383 1.90539 19.3719 2.13316C18.5033 1.15375 17.283 0.58432 15.8977 0.58432C13.3141 0.58432 11.2032 2.77092 11.2032 5.47C11.2032 5.85721 11.2471 6.23303 11.3241 6.58607C7.41013 6.38108 3.92495 4.43364 1.60516 1.48401C1.19837 2.20149 0.967495 3.04424 0.967495 3.93255C0.967495 5.62944 1.79207 7.13272 3.0674 7.98686C2.28681 7.98686 1.56119 7.75909 0.923518 7.41744C0.923518 7.41744 0.923518 7.41744 0.923518 7.4516C0.923518 9.82042 2.55067 11.802 4.70555 12.2462C4.30975 12.3601 3.89197 12.417 3.46319 12.417C3.16635 12.417 2.8695 12.3828 2.58365 12.3259C3.17734 14.2506 4.90344 15.6855 6.98136 15.7197C5.3762 17.0407 3.34226 17.8152 1.12142 17.8152C0.74761 17.8152 0.373805 17.7924 0 17.7468C2.08891 19.1362 4.57361 19.9448 7.23423 19.9448C15.8977 19.9448 20.6582 12.4967 20.6582 6.03942C20.6582 5.82304 20.6582 5.61805 20.6472 5.40167C21.5707 4.71836 22.3623 3.85283 23 2.86203Z" fill="white"/>
</svg>
