<svg width="23" height="23" viewBox="0 0 23 23" fill="none" xmlns="http://www.w3.org/2000/svg">
<path d="M16.514 14.007C16.606 13.2723 16.675 12.5376 16.675 11.7806C16.675 11.0236 16.606 10.2888 16.514 9.55411H20.401C20.585 10.2666 20.7 11.0124 20.7 11.7806C20.7 12.5487 20.585 13.2946 20.401 14.007M14.4785 20.1966C15.1685 18.9609 15.6975 17.625 16.0655 16.2335H19.458C18.354 18.0703 16.5945 19.4952 14.4785 20.1966ZM14.191 14.007H8.809C8.694 13.2723 8.625 12.5376 8.625 11.7806C8.625 11.0236 8.694 10.2777 8.809 9.55411H14.191C14.2945 10.2777 14.375 11.0236 14.375 11.7806C14.375 12.5376 14.2945 13.2723 14.191 14.007ZM11.5 20.6419C10.5455 19.306 9.775 17.8254 9.3035 16.2335H13.6965C13.225 17.8254 12.4545 19.306 11.5 20.6419ZM6.9 7.32766H3.542C4.6345 5.4797 6.4055 4.05476 8.51 3.36456C7.82 4.60025 7.3025 5.93612 6.9 7.32766ZM3.542 16.2335H6.9C7.3025 17.625 7.82 18.9609 8.51 20.1966C6.4055 19.4952 4.6345 18.0703 3.542 16.2335ZM2.599 14.007C2.415 13.2946 2.3 12.5487 2.3 11.7806C2.3 11.0124 2.415 10.2666 2.599 9.55411H6.486C6.394 10.2888 6.325 11.0236 6.325 11.7806C6.325 12.5376 6.394 13.2723 6.486 14.007M11.5 2.90814C12.4545 4.24401 13.225 5.73574 13.6965 7.32766H9.3035C9.775 5.73574 10.5455 4.24401 11.5 2.90814ZM19.458 7.32766H16.0655C15.6975 5.93612 15.1685 4.60025 14.4785 3.36456C16.5945 4.0659 18.354 5.4797 19.458 7.32766ZM11.5 0.648285C5.1405 0.648285 0 5.65781 0 11.7806C0 14.733 1.2116 17.5646 3.36827 19.6523C4.43615 20.686 5.7039 21.506 7.09914 22.0655C8.49438 22.6249 9.9898 22.9129 11.5 22.9129C14.55 22.9129 17.4751 21.74 19.6317 19.6523C21.7884 17.5646 23 14.733 23 11.7806C23 10.3187 22.7025 8.87106 22.1246 7.52043C21.5467 6.1698 20.6996 4.94258 19.6317 3.90886C18.5639 2.87513 17.2961 2.05513 15.9009 1.49568C14.5056 0.93623 13.0102 0.648285 11.5 0.648285Z" fill="white"/>
</svg>
