<svg width="47" height="47" viewBox="0 0 47 47" fill="none" xmlns="http://www.w3.org/2000/svg">
<path d="M23.5 0.5C26.55 0.5 29.4751 1.7116 31.6317 3.86827C33.7884 6.02494 35 8.95001 35 12C35 15.05 33.7884 17.9751 31.6317 20.1317C29.4751 22.2884 26.55 23.5 23.5 23.5C20.45 23.5 17.5249 22.2884 15.3683 20.1317C13.2116 17.9751 12 15.05 12 12C12 8.95001 13.2116 6.02494 15.3683 3.86827C17.5249 1.7116 20.45 0.5 23.5 0.5ZM23.5 29.25C36.2075 29.25 46.5 34.3963 46.5 40.75V46.5H0.5V40.75C0.5 34.3963 10.7925 29.25 23.5 29.25Z" fill="black"/>
</svg>
