<svg width="20" height="25" viewBox="0 0 20 25" fill="none" xmlns="http://www.w3.org/2000/svg">
<path d="M4.76161 1.23142C2.56062 2.45753 0.986058 4.43762 0.328325 6.80647C-0.32955 9.17532 0.00819771 11.6497 1.27884 13.7736C2.97364 16.606 6.13375 18.3656 9.5263 18.3656C10.5975 18.3656 11.6603 18.1877 12.6679 17.8463L16.9482 25L20 23.2997L15.7205 16.1472C17.1661 14.9537 18.2068 13.3708 18.7099 11.5591C19.3676 9.19028 19.0299 6.71602 17.7593 4.59201C16.0646 1.7596 12.9043 0 9.51193 0C7.85025 0 6.20761 0.425753 4.76161 1.23142ZM14.7074 6.2923C15.5075 7.62955 15.7201 9.18756 15.3059 10.6791C14.8918 12.1706 13.9004 13.4172 12.5146 14.1893C11.6037 14.6968 10.5703 14.965 9.5263 14.965C7.38888 14.965 5.39806 13.857 4.33083 12.0733C3.53072 10.736 3.31815 9.17817 3.73244 7.68654C4.14659 6.19505 5.13798 4.94839 6.52379 4.17619C7.43455 3.66882 8.46795 3.40058 9.51193 3.40058C11.6495 3.40058 13.6402 4.50863 14.7074 6.2923Z" fill="white"/>
</svg>
