<svg width="102" height="16" viewBox="0 0 102 16" fill="none" xmlns="http://www.w3.org/2000/svg">
<g clip-path="url(#clip0_147_806)">
<path fill-rule="evenodd" clip-rule="evenodd" d="M10.2503 4.46887C10.3025 4.57479 10.3787 4.66711 10.4727 4.73857C10.568 4.8106 10.6782 4.8603 10.7952 4.88399L14.4841 5.62997C14.6289 5.65814 14.7626 5.72725 14.8694 5.8291C14.9761 5.93094 15.0514 6.06126 15.0864 6.2046C15.1199 6.34728 15.1112 6.49662 15.0612 6.63441C15.0113 6.77219 14.9223 6.89245 14.8051 6.98051L11.9349 9.15779C11.823 9.24162 11.7364 9.35483 11.6849 9.48486C11.6337 9.61412 11.6197 9.75514 11.6446 9.89193L12.419 14.2022C12.4445 14.3459 12.4278 14.494 12.3708 14.6284C12.3139 14.7628 12.2192 14.8778 12.0982 14.9595C11.9759 15.0428 11.8327 15.0904 11.6848 15.0969C11.5369 15.1034 11.3901 15.0685 11.2609 14.9962L7.94496 13.1327C7.82615 13.0662 7.69227 13.0313 7.55612 13.0313C7.41997 13.0313 7.28611 13.0662 7.16729 13.1327L3.85105 14.9962C3.72198 15.0687 3.5752 15.1037 3.42729 15.0973C3.27938 15.0908 3.13624 15.043 3.01402 14.9595C2.89304 14.8778 2.79835 14.7628 2.74142 14.6284C2.68448 14.494 2.66774 14.3459 2.69323 14.2022L3.46763 9.89269C3.49253 9.7559 3.47857 9.61487 3.42737 9.48561C3.37581 9.35559 3.28926 9.24238 3.1773 9.15854L0.307131 6.98126C0.189977 6.89321 0.100988 6.77294 0.0510396 6.63516C0.00109072 6.49738 -0.00765246 6.34803 0.0258558 6.20536C0.0608176 6.06206 0.136105 5.93178 0.242805 5.82994C0.349504 5.72811 0.483148 5.65897 0.627917 5.63072L4.31625 4.88475C4.43328 4.86124 4.54347 4.81152 4.63854 4.73933C4.73257 4.66781 4.80877 4.57549 4.8612 4.46962L6.85329 0.440885C6.91919 0.311103 7.01975 0.2021 7.1438 0.125962C7.26785 0.0498233 7.41057 0.00952148 7.55612 0.00952148C7.70168 0.00952148 7.84439 0.0498233 7.96844 0.125962C8.0925 0.2021 8.19305 0.311103 8.25895 0.440885L10.2503 4.46887Z" fill="black" fill-opacity="0.5"/>
</g>
<g clip-path="url(#clip1_147_806)">
<path fill-rule="evenodd" clip-rule="evenodd" d="M31.9725 4.46887C32.0247 4.57479 32.1008 4.66711 32.1949 4.73857C32.2901 4.8106 32.4004 4.8603 32.5174 4.88399L36.2062 5.62997C36.3511 5.65814 36.4848 5.72725 36.5915 5.8291C36.6983 5.93094 36.7736 6.06126 36.8086 6.2046C36.8421 6.34728 36.8333 6.49662 36.7834 6.63441C36.7334 6.77219 36.6444 6.89245 36.5273 6.98051L33.6571 9.15779C33.5451 9.24162 33.4586 9.35483 33.407 9.48486C33.3558 9.61412 33.3419 9.75514 33.3668 9.89193L34.1412 14.2022C34.1667 14.3459 34.1499 14.494 34.093 14.6284C34.0361 14.7628 33.9414 14.8778 33.8204 14.9595C33.698 15.0428 33.5549 15.0904 33.407 15.0969C33.2591 15.1034 33.1123 15.0685 32.9831 14.9962L29.6671 13.1327C29.5483 13.0662 29.4144 13.0313 29.2783 13.0313C29.1421 13.0313 29.0083 13.0662 28.8895 13.1327L25.5732 14.9962C25.4441 15.0687 25.2974 15.1037 25.1495 15.0973C25.0015 15.0908 24.8584 15.043 24.7362 14.9595C24.6152 14.8778 24.5205 14.7628 24.4636 14.6284C24.4067 14.494 24.3899 14.3459 24.4154 14.2022L25.1898 9.89269C25.2147 9.7559 25.2007 9.61487 25.1495 9.48561C25.098 9.35559 25.0114 9.24238 24.8995 9.15854L22.0293 6.98126C21.9121 6.89321 21.8232 6.77294 21.7732 6.63516C21.7233 6.49738 21.7145 6.34803 21.748 6.20536C21.783 6.06206 21.8583 5.93178 21.965 5.82994C22.0717 5.72811 22.2053 5.65897 22.3501 5.63072L26.0384 4.88475C26.1554 4.86124 26.2656 4.81152 26.3607 4.73933C26.4547 4.66781 26.5309 4.57549 26.5834 4.46962L28.5755 0.440885C28.6414 0.311103 28.7419 0.2021 28.866 0.125962C28.99 0.0498233 29.1327 0.00952148 29.2783 0.00952148C29.4238 0.00952148 29.5666 0.0498233 29.6906 0.125962C29.8147 0.2021 29.9152 0.311103 29.9811 0.440885L31.9725 4.46887Z" fill="black" fill-opacity="0.5"/>
</g>
<g clip-path="url(#clip2_147_806)">
<path fill-rule="evenodd" clip-rule="evenodd" d="M53.6946 4.46887C53.7469 4.57479 53.823 4.66711 53.917 4.73857C54.0123 4.8106 54.1225 4.8603 54.2396 4.88399L57.9284 5.62997C58.0732 5.65814 58.207 5.72725 58.3137 5.8291C58.4205 5.93094 58.4958 6.06126 58.5307 6.2046C58.5642 6.34728 58.5555 6.49662 58.5055 6.63441C58.4556 6.77219 58.3666 6.89245 58.2494 6.98051L55.3793 9.15779C55.2673 9.24162 55.1808 9.35483 55.1292 9.48486C55.078 9.61412 55.0641 9.75514 55.0889 9.89193L55.8633 14.2022C55.8888 14.3459 55.8721 14.494 55.8152 14.6284C55.7582 14.7628 55.6635 14.8778 55.5426 14.9595C55.4202 15.0428 55.277 15.0904 55.1291 15.0969C54.9813 15.1034 54.8345 15.0685 54.7053 14.9962L51.3893 13.1327C51.2705 13.0662 51.1366 13.0313 51.0005 13.0313C50.8643 13.0313 50.7304 13.0662 50.6116 13.1327L47.2954 14.9962C47.1663 15.0687 47.0195 15.1037 46.8716 15.0973C46.7237 15.0908 46.5806 15.043 46.4584 14.9595C46.3374 14.8778 46.2427 14.7628 46.1858 14.6284C46.1288 14.494 46.1121 14.3459 46.1376 14.2022L46.912 9.89269C46.9369 9.7559 46.9229 9.61487 46.8717 9.48561C46.8201 9.35559 46.7336 9.24238 46.6216 9.15854L43.7515 6.98126C43.6343 6.89321 43.5453 6.77294 43.4954 6.63516C43.4454 6.49738 43.4367 6.34803 43.4702 6.20536C43.5052 6.06206 43.5804 5.93178 43.6871 5.82994C43.7938 5.72811 43.9275 5.65897 44.0723 5.63072L47.7606 4.88475C47.8776 4.86124 47.9878 4.81152 48.0829 4.73933C48.1769 4.66781 48.2531 4.57549 48.3055 4.46962L50.2976 0.440885C50.3635 0.311103 50.4641 0.2021 50.5881 0.125962C50.7122 0.0498233 50.8549 0.00952148 51.0005 0.00952148C51.146 0.00952148 51.2887 0.0498233 51.4128 0.125962C51.5368 0.2021 51.6374 0.311103 51.7033 0.440885L53.6946 4.46887Z" fill="black" fill-opacity="0.5"/>
</g>
<g clip-path="url(#clip3_147_806)">
<path fill-rule="evenodd" clip-rule="evenodd" d="M75.4168 4.46887C75.469 4.57479 75.5452 4.66711 75.6392 4.73857C75.7345 4.8106 75.8447 4.8603 75.9617 4.88399L79.6506 5.62997C79.7954 5.65814 79.9291 5.72725 80.0359 5.8291C80.1426 5.93094 80.2179 6.06126 80.2529 6.2046C80.2864 6.34728 80.2777 6.49662 80.2277 6.63441C80.1778 6.77219 80.0888 6.89245 79.9716 6.98051L77.1015 9.15779C76.9895 9.24162 76.9029 9.35483 76.8514 9.48486C76.8002 9.61412 76.7862 9.75514 76.8111 9.89193L77.5855 14.2022C77.611 14.3459 77.5943 14.494 77.5373 14.6284C77.4804 14.7628 77.3857 14.8778 77.2647 14.9595C77.1424 15.0428 76.9992 15.0904 76.8513 15.0969C76.7034 15.1034 76.5566 15.0685 76.4274 14.9962L73.1115 13.1327C72.9927 13.0662 72.8588 13.0313 72.7226 13.0313C72.5865 13.0313 72.4526 13.0662 72.3338 13.1327L69.0176 14.9962C68.8885 15.0687 68.7417 15.1037 68.5938 15.0973C68.4459 15.0908 68.3027 15.043 68.1805 14.9595C68.0595 14.8778 67.9649 14.7628 67.9079 14.6284C67.851 14.494 67.8342 14.3459 67.8597 14.2022L68.6341 9.89269C68.659 9.7559 68.6451 9.61487 68.5939 9.48561C68.5423 9.35559 68.4558 9.24238 68.3438 9.15854L65.4736 6.98126C65.3565 6.89321 65.2675 6.77294 65.2175 6.63516C65.1676 6.49738 65.1589 6.34803 65.1924 6.20536C65.2273 6.06206 65.3026 5.93178 65.4093 5.82994C65.516 5.72811 65.6497 5.65897 65.7944 5.63072L69.4828 4.88475C69.5998 4.86124 69.71 4.81152 69.805 4.73933C69.8991 4.66781 69.9753 4.57549 70.0277 4.46962L72.0198 0.440885C72.0857 0.311103 72.1862 0.2021 72.3103 0.125962C72.4344 0.0498233 72.5771 0.00952148 72.7226 0.00952148C72.8682 0.00952148 73.0109 0.0498233 73.1349 0.125962C73.259 0.2021 73.3596 0.311103 73.4255 0.440885L75.4168 4.46887Z" fill="black" fill-opacity="0.5"/>
</g>
<g clip-path="url(#clip4_147_806)">
<path fill-rule="evenodd" clip-rule="evenodd" d="M97.139 4.46887C97.1912 4.57479 97.2674 4.66711 97.3614 4.73857C97.4566 4.8106 97.5669 4.8603 97.6839 4.88399L101.373 5.62997C101.518 5.65814 101.651 5.72725 101.758 5.8291C101.865 5.93094 101.94 6.06126 101.975 6.2046C102.009 6.34728 102 6.49662 101.95 6.63441C101.9 6.77219 101.811 6.89245 101.694 6.98051L98.8236 9.15779C98.7117 9.24162 98.6251 9.35483 98.5735 9.48486C98.5223 9.61412 98.5084 9.75514 98.5333 9.89193L99.3077 14.2022C99.3332 14.3459 99.3164 14.494 99.2595 14.6284C99.2026 14.7628 99.1079 14.8778 98.9869 14.9595C98.8645 15.0428 98.7214 15.0904 98.5735 15.0969C98.4256 15.1034 98.2788 15.0685 98.1496 14.9962L94.8336 13.1327C94.7148 13.0662 94.5809 13.0313 94.4448 13.0313C94.3086 13.0313 94.1748 13.0662 94.056 13.1327L90.7397 14.9962C90.6107 15.0687 90.4639 15.1037 90.316 15.0973C90.1681 15.0908 90.0249 15.043 89.9027 14.9595C89.7817 14.8778 89.687 14.7628 89.6301 14.6284C89.5732 14.494 89.5564 14.3459 89.5819 14.2022L90.3563 9.89269C90.3812 9.7559 90.3672 9.61487 90.316 9.48561C90.2645 9.35559 90.1779 9.24238 90.066 9.15854L87.1958 6.98126C87.0786 6.89321 86.9897 6.77294 86.9397 6.63516C86.8898 6.49738 86.881 6.34803 86.9145 6.20536C86.9495 6.06206 87.0248 5.93178 87.1315 5.82994C87.2382 5.72811 87.3718 5.65897 87.5166 5.63072L91.2049 4.88475C91.322 4.86124 91.4321 4.81152 91.5272 4.73933C91.6212 4.66781 91.6974 4.57549 91.7499 4.46962L93.742 0.440885C93.8079 0.311103 93.9084 0.2021 94.0325 0.125962C94.1565 0.0498233 94.2992 0.00952148 94.4448 0.00952148C94.5903 0.00952148 94.7331 0.0498233 94.8571 0.125962C94.9812 0.2021 95.0817 0.311103 95.1476 0.440885L97.139 4.46887Z" fill="black" fill-opacity="0.5"/>
</g>
<defs>
<clipPath id="clip0_147_806">
<rect width="15.1111" height="15.1111" fill="white"/>
</clipPath>
<clipPath id="clip1_147_806">
<rect width="15.1111" height="15.1111" fill="white" transform="translate(21.7222)"/>
</clipPath>
<clipPath id="clip2_147_806">
<rect width="15.1111" height="15.1111" fill="white" transform="translate(43.4443)"/>
</clipPath>
<clipPath id="clip3_147_806">
<rect width="15.1111" height="15.1111" fill="white" transform="translate(65.1665)"/>
</clipPath>
<clipPath id="clip4_147_806">
<rect width="15.1111" height="15.1111" fill="white" transform="translate(86.8887)"/>
</clipPath>
</defs>
</svg>
