<svg width="28" height="18" viewBox="0 0 28 18" fill="none" xmlns="http://www.w3.org/2000/svg">
<path d="M28 7.71429H25.4545V5.14286H22.9091V7.71429H20.3636V10.2857H22.9091V12.8571H25.4545V10.2857H28M8.90909 7.71429V10.8H14C13.7455 12.0857 12.4727 14.6571 8.90909 14.6571C5.85455 14.6571 3.43636 12.0857 3.43636 9C3.43636 5.91429 5.85455 3.34286 8.90909 3.34286C10.6909 3.34286 11.8364 4.11429 12.4727 4.75714L14.8909 2.44286C13.3636 0.9 11.3273 0 8.90909 0C3.94545 0 0 3.98571 0 9C0 14.0143 3.94545 18 8.90909 18C14 18 17.4364 14.4 17.4364 9.25714C17.4364 8.61429 17.4364 8.22857 17.3091 7.71429H8.90909Z" fill="black" fill-opacity="0.8"/>
</svg>
