<svg width="25" height="26" viewBox="0 0 25 26" fill="none" xmlns="http://www.w3.org/2000/svg">
<path d="M7.25 0H17.75C21.75 0 25 3.38 25 7.54V18.46C25 20.4597 24.2362 22.3776 22.8765 23.7916C21.5169 25.2056 19.6728 26 17.75 26H7.25C3.25 26 0 22.62 0 18.46V7.54C0 5.54027 0.763837 3.62244 2.12348 2.20842C3.48311 0.794391 5.32718 0 7.25 0ZM7 2.6C5.80653 2.6 4.66193 3.09307 3.81802 3.97074C2.97411 4.84841 2.5 6.03879 2.5 7.28V18.72C2.5 21.307 4.5125 23.4 7 23.4H18C19.1935 23.4 20.3381 22.9069 21.182 22.0293C22.0259 21.1516 22.5 19.9612 22.5 18.72V7.28C22.5 4.693 20.4875 2.6 18 2.6H7ZM19.0625 4.55C19.4769 4.55 19.8743 4.7212 20.1674 5.02595C20.4604 5.3307 20.625 5.74402 20.625 6.175C20.625 6.60598 20.4604 7.0193 20.1674 7.32405C19.8743 7.62879 19.4769 7.8 19.0625 7.8C18.6481 7.8 18.2507 7.62879 17.9576 7.32405C17.6646 7.0193 17.5 6.60598 17.5 6.175C17.5 5.74402 17.6646 5.3307 17.9576 5.02595C18.2507 4.7212 18.6481 4.55 19.0625 4.55ZM12.5 6.5C14.1576 6.5 15.7473 7.18482 16.9194 8.40381C18.0915 9.62279 18.75 11.2761 18.75 13C18.75 14.7239 18.0915 16.3772 16.9194 17.5962C15.7473 18.8152 14.1576 19.5 12.5 19.5C10.8424 19.5 9.25268 18.8152 8.08058 17.5962C6.90848 16.3772 6.25 14.7239 6.25 13C6.25 11.2761 6.90848 9.62279 8.08058 8.40381C9.25268 7.18482 10.8424 6.5 12.5 6.5ZM12.5 9.1C11.5054 9.1 10.5516 9.51089 9.84835 10.2423C9.14509 10.9737 8.75 11.9657 8.75 13C8.75 14.0343 9.14509 15.0263 9.84835 15.7577C10.5516 16.4891 11.5054 16.9 12.5 16.9C13.4946 16.9 14.4484 16.4891 15.1517 15.7577C15.8549 15.0263 16.25 14.0343 16.25 13C16.25 11.9657 15.8549 10.9737 15.1517 10.2423C14.4484 9.51089 13.4946 9.1 12.5 9.1Z" fill="black" fill-opacity="0.8"/>
</svg>
