<svg width="16" height="22" viewBox="0 0 16 22" fill="none" xmlns="http://www.w3.org/2000/svg">
<path d="M8 10.45C7.24224 10.45 6.51551 10.1603 5.9797 9.64454C5.44388 9.12882 5.14286 8.42935 5.14286 7.7C5.14286 6.97065 5.44388 6.27118 5.9797 5.75546C6.51551 5.23973 7.24224 4.95 8 4.95C8.75776 4.95 9.48449 5.23973 10.0203 5.75546C10.5561 6.27118 10.8571 6.97065 10.8571 7.7C10.8571 8.06114 10.7832 8.41873 10.6397 8.75238C10.4961 9.08603 10.2856 9.38918 10.0203 9.64454C9.755 9.89991 9.44003 10.1025 9.09338 10.2407C8.74674 10.3789 8.37521 10.45 8 10.45ZM8 0C5.87827 0 3.84344 0.811248 2.34315 2.25528C0.842855 3.69931 0 5.65783 0 7.7C0 13.475 8 22 8 22C8 22 16 13.475 16 7.7C16 5.65783 15.1571 3.69931 13.6569 2.25528C12.1566 0.811248 10.1217 0 8 0Z" fill="black" fill-opacity="0.8"/>
</svg>
