<svg width="20" height="20" viewBox="0 0 20 20" fill="none" xmlns="http://www.w3.org/2000/svg">
<path d="M4.02222 8.65556C5.62222 11.8 8.2 14.3778 11.3444 15.9778L13.7889 13.5333C14.1 13.2222 14.5333 13.1333 14.9222 13.2556C16.1667 13.6667 17.5 13.8889 18.8889 13.8889C19.1836 13.8889 19.4662 14.006 19.6746 14.2143C19.8829 14.4227 20 14.7053 20 15V18.8889C20 19.1836 19.8829 19.4662 19.6746 19.6746C19.4662 19.8829 19.1836 20 18.8889 20C13.8792 20 9.07478 18.0099 5.53243 14.4676C1.99007 10.9252 0 6.12076 0 1.11111C0 0.816426 0.117063 0.533811 0.325437 0.325437C0.533811 0.117063 0.816426 0 1.11111 0H5C5.29469 0 5.5773 0.117063 5.78567 0.325437C5.99405 0.533811 6.11111 0.816426 6.11111 1.11111C6.11111 2.5 6.33333 3.83333 6.74444 5.07778C6.86667 5.46667 6.77778 5.9 6.46667 6.21111L4.02222 8.65556Z" fill="black" fill-opacity="0.8"/>
</svg>
