<svg width="27" height="22" viewBox="0 0 27 22" fill="none" xmlns="http://www.w3.org/2000/svg">
<path d="M27 2.58824C26.0062 3.04118 24.935 3.33882 23.825 3.48118C24.9608 2.79529 25.8384 1.70824 26.2514 0.401176C25.1802 1.04824 23.9928 1.50118 22.7409 1.76C21.7213 0.647059 20.2887 0 18.6625 0C15.6295 0 13.1515 2.48471 13.1515 5.55176C13.1515 5.99177 13.2032 6.41882 13.2935 6.82C8.69885 6.58706 4.60755 4.37412 1.88432 1.02235C1.40679 1.83765 1.13576 2.79529 1.13576 3.80471C1.13576 5.73294 2.10373 7.44118 3.60086 8.41177C2.68451 8.41177 1.8327 8.15294 1.08413 7.76471C1.08413 7.76471 1.08413 7.76471 1.08413 7.80353C1.08413 10.4953 2.99426 12.7471 5.5239 13.2518C5.05927 13.3812 4.56883 13.4459 4.06549 13.4459C3.71702 13.4459 3.36855 13.4071 3.03298 13.3424C3.72992 15.5294 5.75621 17.16 8.19551 17.1988C6.31119 18.7 3.92352 19.58 1.31644 19.58C0.877629 19.58 0.438815 19.5541 0 19.5024C2.4522 21.0812 5.36903 22 8.49235 22C18.6625 22 24.251 13.5365 24.251 6.19882C24.251 5.95294 24.251 5.72 24.2381 5.47412C25.3222 4.69765 26.2514 3.71412 27 2.58824Z" fill="black" fill-opacity="0.8"/>
</svg>
