<svg width="26" height="18" viewBox="0 0 26 18" fill="none" xmlns="http://www.w3.org/2000/svg">
<path d="M10.4 12.8571L17.147 9L10.4 5.14286V12.8571ZM25.428 2.79C25.597 3.39429 25.714 4.20429 25.792 5.23286C25.883 6.26143 25.922 7.14857 25.922 7.92L26 9C26 11.8157 25.792 13.8857 25.428 15.21C25.103 16.3671 24.349 17.1129 23.179 17.4343C22.568 17.6014 21.45 17.7171 19.734 17.7943C18.044 17.8843 16.497 17.9229 15.067 17.9229L13 18C7.553 18 4.16 17.7943 2.821 17.4343C1.651 17.1129 0.897 16.3671 0.572 15.21C0.403 14.6057 0.286 13.7957 0.208 12.7671C0.117 11.7386 0.0779999 10.8514 0.0779999 10.08L0 9C0 6.18429 0.208 4.11429 0.572 2.79C0.897 1.63286 1.651 0.887143 2.821 0.565714C3.432 0.398571 4.55 0.282857 6.266 0.205714C7.956 0.115714 9.503 0.0771428 10.933 0.0771428L13 0C18.447 0 21.84 0.205714 23.179 0.565714C24.349 0.887143 25.103 1.63286 25.428 2.79Z" fill="black" fill-opacity="0.8"/>
</svg>
