<svg width="109" height="99" viewBox="0 0 109 99" fill="none" xmlns="http://www.w3.org/2000/svg">
<path d="M105.416 0.0722656H3.40064C1.53032 0.0722656 0 1.60237 0 3.47269V76.3019C0 78.1723 1.53032 79.7026 3.40064 79.7026H51.0081V91.8868H28.0544V98.6878H80.7627V91.8868H57.8092V79.7026H105.417C107.287 79.7026 108.817 78.1723 108.817 76.3019V3.47269C108.817 1.60237 107.287 0.0722656 105.416 0.0722656ZM102.016 72.9015H6.80107V6.87333H102.016V72.9015Z" fill="white"/>
<path d="M36.909 60.0406C48.0354 60.0406 57.0572 51.019 57.0572 39.8924C57.0572 28.7657 48.0356 19.7441 36.909 19.7441C25.7823 19.7441 16.7607 28.7657 16.7607 39.8924C16.7607 51.019 25.7823 60.0406 36.909 60.0406ZM49.355 35.1862H40.9998V27.2561C44.8493 28.5075 47.9233 31.4182 49.355 35.1862ZM34.1988 26.8241V41.9837H50.0452C49.0319 48.3461 43.5535 53.236 36.9123 53.236C29.5536 53.236 23.5651 47.2478 23.5651 39.8888C23.5618 33.462 28.1357 28.0824 34.1988 26.8241Z" fill="white"/>
<path d="M92.0556 44.9999H65.0112V51.8009H92.0556V44.9999Z" fill="white"/>
<path d="M92.0556 23.9916H65.0112V30.7926H92.0556V23.9916Z" fill="white"/>
<path d="M92.0556 34.812H65.0112V41.6131H92.0556V34.812Z" fill="white"/>
</svg>
