<svg width="102" height="16" viewBox="0 0 102 16" fill="none" xmlns="http://www.w3.org/2000/svg">
<g clip-path="url(#clip0_144_379)">
<path fill-rule="evenodd" clip-rule="evenodd" d="M10.2503 5.35785C10.3025 5.46376 10.3787 5.55609 10.4727 5.62755C10.568 5.69958 10.6782 5.74927 10.7952 5.77297L14.4841 6.51894C14.6289 6.54712 14.7626 6.61623 14.8694 6.71807C14.9761 6.81992 15.0514 6.95024 15.0864 7.09358C15.1199 7.23626 15.1112 7.3856 15.0612 7.52339C15.0113 7.66117 14.9223 7.78143 14.8051 7.86949L11.9349 10.0468C11.823 10.1306 11.7364 10.2438 11.6849 10.3738C11.6337 10.5031 11.6197 10.6441 11.6446 10.7809L12.419 15.0912C12.4445 15.2349 12.4278 15.3829 12.3708 15.5174C12.3139 15.6518 12.2192 15.7668 12.0982 15.8485C11.9759 15.9318 11.8327 15.9794 11.6848 15.9859C11.5369 15.9923 11.3901 15.9575 11.2609 15.8852L7.94496 14.0217C7.82615 13.9552 7.69227 13.9203 7.55612 13.9203C7.41997 13.9203 7.28611 13.9552 7.16729 14.0217L3.85105 15.8852C3.72198 15.9577 3.5752 15.9927 3.42729 15.9862C3.27938 15.9797 3.13624 15.932 3.01402 15.8485C2.89304 15.7668 2.79835 15.6518 2.74142 15.5174C2.68448 15.3829 2.66774 15.2349 2.69323 15.0912L3.46763 10.7817C3.49253 10.6449 3.47857 10.5039 3.42737 10.3746C3.37581 10.2446 3.28926 10.1314 3.1773 10.0475L0.307131 7.87024C0.189977 7.78218 0.100988 7.66192 0.0510396 7.52414C0.00109072 7.38635 -0.00765246 7.23701 0.0258558 7.09433C0.0608176 6.95104 0.136105 6.82076 0.242805 6.71892C0.349504 6.61708 0.483148 6.54795 0.627917 6.5197L4.31625 5.77373C4.43328 5.75022 4.54347 5.7005 4.63854 5.62831C4.73257 5.55678 4.80877 5.46447 4.8612 5.3586L6.85329 1.32986C6.91919 1.20008 7.01975 1.09108 7.1438 1.01494C7.26785 0.9388 7.41057 0.898499 7.55612 0.898499C7.70168 0.898499 7.84439 0.9388 7.96844 1.01494C8.0925 1.09108 8.19305 1.20008 8.25895 1.32986L10.2503 5.35785Z" fill="#E9D100"/>
</g>
<g clip-path="url(#clip1_144_379)">
<path fill-rule="evenodd" clip-rule="evenodd" d="M31.9725 5.35785C32.0247 5.46376 32.1008 5.55609 32.1949 5.62755C32.2901 5.69958 32.4004 5.74927 32.5174 5.77297L36.2062 6.51894C36.3511 6.54712 36.4848 6.61623 36.5915 6.71807C36.6983 6.81992 36.7736 6.95024 36.8086 7.09358C36.8421 7.23626 36.8333 7.3856 36.7834 7.52339C36.7334 7.66117 36.6444 7.78143 36.5273 7.86949L33.6571 10.0468C33.5451 10.1306 33.4586 10.2438 33.407 10.3738C33.3558 10.5031 33.3419 10.6441 33.3668 10.7809L34.1412 15.0912C34.1667 15.2349 34.1499 15.3829 34.093 15.5174C34.0361 15.6518 33.9414 15.7668 33.8204 15.8485C33.698 15.9318 33.5549 15.9794 33.407 15.9859C33.2591 15.9923 33.1123 15.9575 32.9831 15.8852L29.6671 14.0217C29.5483 13.9552 29.4144 13.9203 29.2783 13.9203C29.1421 13.9203 29.0083 13.9552 28.8895 14.0217L25.5732 15.8852C25.4441 15.9577 25.2974 15.9927 25.1495 15.9862C25.0015 15.9797 24.8584 15.932 24.7362 15.8485C24.6152 15.7668 24.5205 15.6518 24.4636 15.5174C24.4067 15.3829 24.3899 15.2349 24.4154 15.0912L25.1898 10.7817C25.2147 10.6449 25.2007 10.5039 25.1495 10.3746C25.098 10.2446 25.0114 10.1314 24.8995 10.0475L22.0293 7.87024C21.9121 7.78218 21.8232 7.66192 21.7732 7.52414C21.7233 7.38635 21.7145 7.23701 21.748 7.09433C21.783 6.95104 21.8583 6.82076 21.965 6.71892C22.0717 6.61708 22.2053 6.54795 22.3501 6.5197L26.0384 5.77373C26.1554 5.75022 26.2656 5.7005 26.3607 5.62831C26.4547 5.55678 26.5309 5.46447 26.5834 5.3586L28.5755 1.32986C28.6414 1.20008 28.7419 1.09108 28.866 1.01494C28.99 0.9388 29.1327 0.898499 29.2783 0.898499C29.4238 0.898499 29.5666 0.9388 29.6906 1.01494C29.8147 1.09108 29.9152 1.20008 29.9811 1.32986L31.9725 5.35785Z" fill="#E9D100"/>
</g>
<g clip-path="url(#clip2_144_379)">
<path fill-rule="evenodd" clip-rule="evenodd" d="M53.6946 5.35785C53.7469 5.46376 53.823 5.55609 53.917 5.62755C54.0123 5.69958 54.1225 5.74927 54.2396 5.77297L57.9284 6.51894C58.0732 6.54712 58.207 6.61623 58.3137 6.71807C58.4205 6.81992 58.4958 6.95024 58.5307 7.09358C58.5642 7.23626 58.5555 7.3856 58.5055 7.52339C58.4556 7.66117 58.3666 7.78143 58.2494 7.86949L55.3793 10.0468C55.2673 10.1306 55.1808 10.2438 55.1292 10.3738C55.078 10.5031 55.0641 10.6441 55.0889 10.7809L55.8633 15.0912C55.8888 15.2349 55.8721 15.3829 55.8152 15.5174C55.7582 15.6518 55.6635 15.7668 55.5426 15.8485C55.4202 15.9318 55.277 15.9794 55.1291 15.9859C54.9813 15.9923 54.8345 15.9575 54.7053 15.8852L51.3893 14.0217C51.2705 13.9552 51.1366 13.9203 51.0005 13.9203C50.8643 13.9203 50.7304 13.9552 50.6116 14.0217L47.2954 15.8852C47.1663 15.9577 47.0195 15.9927 46.8716 15.9862C46.7237 15.9797 46.5806 15.932 46.4584 15.8485C46.3374 15.7668 46.2427 15.6518 46.1858 15.5174C46.1288 15.3829 46.1121 15.2349 46.1376 15.0912L46.912 10.7817C46.9369 10.6449 46.9229 10.5039 46.8717 10.3746C46.8201 10.2446 46.7336 10.1314 46.6216 10.0475L43.7515 7.87024C43.6343 7.78218 43.5453 7.66192 43.4954 7.52414C43.4454 7.38635 43.4367 7.23701 43.4702 7.09433C43.5052 6.95104 43.5804 6.82076 43.6871 6.71892C43.7938 6.61708 43.9275 6.54795 44.0723 6.5197L47.7606 5.77373C47.8776 5.75022 47.9878 5.7005 48.0829 5.62831C48.1769 5.55678 48.2531 5.46447 48.3055 5.3586L50.2976 1.32986C50.3635 1.20008 50.4641 1.09108 50.5881 1.01494C50.7122 0.9388 50.8549 0.898499 51.0005 0.898499C51.146 0.898499 51.2887 0.9388 51.4128 1.01494C51.5368 1.09108 51.6374 1.20008 51.7033 1.32986L53.6946 5.35785Z" fill="#E9D100"/>
</g>
<g clip-path="url(#clip3_144_379)">
<path fill-rule="evenodd" clip-rule="evenodd" d="M75.4168 5.35785C75.469 5.46376 75.5452 5.55609 75.6392 5.62755C75.7345 5.69958 75.8447 5.74927 75.9617 5.77297L79.6506 6.51894C79.7954 6.54712 79.9291 6.61623 80.0359 6.71807C80.1426 6.81992 80.2179 6.95024 80.2529 7.09358C80.2864 7.23626 80.2777 7.3856 80.2277 7.52339C80.1778 7.66117 80.0888 7.78143 79.9716 7.86949L77.1015 10.0468C76.9895 10.1306 76.9029 10.2438 76.8514 10.3738C76.8002 10.5031 76.7862 10.6441 76.8111 10.7809L77.5855 15.0912C77.611 15.2349 77.5943 15.3829 77.5373 15.5174C77.4804 15.6518 77.3857 15.7668 77.2647 15.8485C77.1424 15.9318 76.9992 15.9794 76.8513 15.9859C76.7034 15.9923 76.5566 15.9575 76.4274 15.8852L73.1115 14.0217C72.9927 13.9552 72.8588 13.9203 72.7226 13.9203C72.5865 13.9203 72.4526 13.9552 72.3338 14.0217L69.0176 15.8852C68.8885 15.9577 68.7417 15.9927 68.5938 15.9862C68.4459 15.9797 68.3027 15.932 68.1805 15.8485C68.0595 15.7668 67.9649 15.6518 67.9079 15.5174C67.851 15.3829 67.8342 15.2349 67.8597 15.0912L68.6341 10.7817C68.659 10.6449 68.6451 10.5039 68.5939 10.3746C68.5423 10.2446 68.4558 10.1314 68.3438 10.0475L65.4736 7.87024C65.3565 7.78218 65.2675 7.66192 65.2175 7.52414C65.1676 7.38635 65.1589 7.23701 65.1924 7.09433C65.2273 6.95104 65.3026 6.82076 65.4093 6.71892C65.516 6.61708 65.6497 6.54795 65.7944 6.5197L69.4828 5.77373C69.5998 5.75022 69.71 5.7005 69.805 5.62831C69.8991 5.55678 69.9753 5.46447 70.0277 5.3586L72.0198 1.32986C72.0857 1.20008 72.1862 1.09108 72.3103 1.01494C72.4344 0.9388 72.5771 0.898499 72.7226 0.898499C72.8682 0.898499 73.0109 0.9388 73.1349 1.01494C73.259 1.09108 73.3596 1.20008 73.4255 1.32986L75.4168 5.35785Z" fill="#E9D100"/>
</g>
<g clip-path="url(#clip4_144_379)">
<path fill-rule="evenodd" clip-rule="evenodd" d="M97.139 5.35785C97.1912 5.46376 97.2674 5.55609 97.3614 5.62755C97.4566 5.69958 97.5669 5.74927 97.6839 5.77297L101.373 6.51894C101.518 6.54712 101.651 6.61623 101.758 6.71807C101.865 6.81992 101.94 6.95024 101.975 7.09358C102.009 7.23626 102 7.3856 101.95 7.52339C101.9 7.66117 101.811 7.78143 101.694 7.86949L98.8236 10.0468C98.7117 10.1306 98.6251 10.2438 98.5735 10.3738C98.5223 10.5031 98.5084 10.6441 98.5333 10.7809L99.3077 15.0912C99.3332 15.2349 99.3164 15.3829 99.2595 15.5174C99.2026 15.6518 99.1079 15.7668 98.9869 15.8485C98.8645 15.9318 98.7214 15.9794 98.5735 15.9859C98.4256 15.9923 98.2788 15.9575 98.1496 15.8852L94.8336 14.0217C94.7148 13.9552 94.5809 13.9203 94.4448 13.9203C94.3086 13.9203 94.1748 13.9552 94.056 14.0217L90.7397 15.8852C90.6107 15.9577 90.4639 15.9927 90.316 15.9862C90.1681 15.9797 90.0249 15.932 89.9027 15.8485C89.7817 15.7668 89.687 15.6518 89.6301 15.5174C89.5732 15.3829 89.5564 15.2349 89.5819 15.0912L90.3563 10.7817C90.3812 10.6449 90.3672 10.5039 90.316 10.3746C90.2645 10.2446 90.1779 10.1314 90.066 10.0475L87.1958 7.87024C87.0786 7.78218 86.9897 7.66192 86.9397 7.52414C86.8898 7.38635 86.881 7.23701 86.9145 7.09433C86.9495 6.95104 87.0248 6.82076 87.1315 6.71892C87.2382 6.61708 87.3718 6.54795 87.5166 6.5197L91.2049 5.77373C91.322 5.75022 91.4321 5.7005 91.5272 5.62831C91.6212 5.55678 91.6974 5.46447 91.7499 5.3586L93.742 1.32986C93.8079 1.20008 93.9084 1.09108 94.0325 1.01494C94.1565 0.9388 94.2992 0.898499 94.4448 0.898499C94.5903 0.898499 94.7331 0.9388 94.8571 1.01494C94.9812 1.09108 95.0817 1.20008 95.1476 1.32986L97.139 5.35785Z" fill="#E9D100"/>
</g>
<defs>
<clipPath id="clip0_144_379">
<rect width="15.1111" height="15.1111" fill="white" transform="translate(0 0.888916)"/>
</clipPath>
<clipPath id="clip1_144_379">
<rect width="15.1111" height="15.1111" fill="white" transform="translate(21.7222 0.888916)"/>
</clipPath>
<clipPath id="clip2_144_379">
<rect width="15.1111" height="15.1111" fill="white" transform="translate(43.4443 0.888916)"/>
</clipPath>
<clipPath id="clip3_144_379">
<rect width="15.1111" height="15.1111" fill="white" transform="translate(65.1665 0.888916)"/>
</clipPath>
<clipPath id="clip4_144_379">
<rect width="15.1111" height="15.1111" fill="white" transform="translate(86.8887 0.888916)"/>
</clipPath>
</defs>
</svg>
