<svg width="20" height="21" viewBox="0 0 20 21" fill="none" xmlns="http://www.w3.org/2000/svg">
<path d="M18.6376 14.0567C17.6217 13.1769 16.6898 12.7492 15.7885 12.7492C14.4848 12.7492 13.5462 13.6428 12.6963 14.5583C12.5986 14.6637 12.4803 14.7129 12.324 14.7129C11.6078 14.7129 10.348 13.7465 8.57944 11.8405C6.49884 9.59826 5.71219 8.17216 6.24115 7.60193C7.67509 6.05724 8.12274 4.50873 5.92728 1.56644C5.14133 0.512321 4.37236 0 3.57646 0C2.50309 0 1.68713 0.924579 0.96724 1.74039C0.84278 1.88141 0.72521 2.01463 0.609938 2.13885C-0.203719 3.01557 -0.203301 4.92789 0.611122 7.25456C1.50469 9.80739 3.26899 12.5844 5.5791 15.0742C7.36561 16.9992 9.30943 18.5549 11.2006 19.5994C12.8516 20.5114 14.4531 21 15.71 21C15.7102 21 15.7103 21 15.7105 21C16.4971 21 17.136 20.8151 17.558 20.4391C18.4152 19.6754 20.0106 18.2608 19.9999 16.5806C19.9941 15.6794 19.5359 14.8349 18.6376 14.0567Z" fill="black" fill-opacity="0.5"/>
</svg>
