<svg width="20" height="19" viewBox="0 0 20 19" fill="none" xmlns="http://www.w3.org/2000/svg">
<path d="M5 6.67611L5.00952 6.66553" stroke="black" stroke-opacity="0.5" stroke-width="1.5" stroke-linecap="round" stroke-linejoin="round"/>
<path d="M9 6.67611L9.00952 6.66553" stroke="black" stroke-opacity="0.5" stroke-width="1.5" stroke-linecap="round" stroke-linejoin="round"/>
<path d="M5 10.4539L5.00952 10.4434" stroke="black" stroke-opacity="0.5" stroke-width="1.5" stroke-linecap="round" stroke-linejoin="round"/>
<path d="M9 10.4539L9.00952 10.4434" stroke="black" stroke-opacity="0.5" stroke-width="1.5" stroke-linecap="round" stroke-linejoin="round"/>
<path d="M5 14.2318L5.00952 14.2212" stroke="black" stroke-opacity="0.5" stroke-width="1.5" stroke-linecap="round" stroke-linejoin="round"/>
<path d="M9 14.2318L9.00952 14.2212" stroke="black" stroke-opacity="0.5" stroke-width="1.5" stroke-linecap="round" stroke-linejoin="round"/>
<path d="M13 18H1.6C1.26863 18 1 17.7463 1 17.4333V3.45556C1 3.14259 1.26863 2.88889 1.6 2.88889H7V1.56667C7 1.25371 7.26863 1 7.6 1H12.4C12.7314 1 13 1.25371 13 1.56667V6.66667M13 18H18.4C18.7314 18 19 17.7463 19 17.4333V7.23333C19 6.92037 18.7314 6.66667 18.4 6.66667H13M13 18V14.2222M13 6.66667V10.4444M13 10.4444H15M13 10.4444V14.2222M13 14.2222H15" stroke="black" stroke-opacity="0.5" stroke-width="1.5" stroke-linecap="round" stroke-linejoin="round"/>
</svg>
