<svg width="17" height="19" viewBox="0 0 17 19" fill="none" xmlns="http://www.w3.org/2000/svg">
<path d="M8.5 7.6C10.3889 7.6 11.3333 9.899 10.0017 11.248C8.66056 12.597 6.375 11.6375 6.375 9.7375C6.375 8.55 7.31944 7.6 8.5 7.6ZM12.75 16.15H4.25V15.086C4.25 13.8985 6.13889 12.9485 8.5 12.9485C10.8611 12.9485 12.75 13.8985 12.75 15.086M15.1111 17.1H1.88889V6.65H15.1111M12.2778 0V1.9H4.72222V0H2.83333V1.9H1.88889C0.85 1.9 0 2.755 0 3.8V17.1C0 18.1545 0.85 19 1.88889 19H15.1111C16.1594 19 17 18.1545 17 17.1V3.8C17 2.755 16.1594 1.9 15.1111 1.9H14.1667V0H12.2778Z" fill="#3AC569"/>
</svg>
