<svg width="19" height="19" viewBox="0 0 19 19" fill="none" xmlns="http://www.w3.org/2000/svg">
<path d="M6.65 19C6.39804 19 6.15641 18.8999 5.97825 18.7218C5.80009 18.5436 5.7 18.302 5.7 18.05V15.2H1.9C1.39609 15.2 0.912816 14.9998 0.556497 14.6435C0.200178 14.2872 0 13.8039 0 13.3V1.9C0 0.8455 0.855 0 1.9 0H17.1C17.6039 0 18.0872 0.200178 18.4435 0.556497C18.7998 0.912816 19 1.39609 19 1.9V13.3C19 13.8039 18.7998 14.2872 18.4435 14.6435C18.0872 14.9998 17.6039 15.2 17.1 15.2H11.305L7.79 18.7245C7.6 18.905 7.3625 19 7.125 19H6.65ZM13.3 11.4V10.45C13.3 9.1865 10.7635 8.55 9.5 8.55C8.2365 8.55 5.7 9.1865 5.7 10.45V11.4H13.3ZM9.5 3.8C8.99609 3.8 8.51282 4.00018 8.1565 4.3565C7.80018 4.71282 7.6 5.19609 7.6 5.7C7.6 6.20391 7.80018 6.68718 8.1565 7.0435C8.51282 7.39982 8.99609 7.6 9.5 7.6C10.0039 7.6 10.4872 7.39982 10.8435 7.0435C11.1998 6.68718 11.4 6.20391 11.4 5.7C11.4 5.19609 11.1998 4.71282 10.8435 4.3565C10.4872 4.00018 10.0039 3.8 9.5 3.8Z" fill="#3AC569"/>
</svg>
