<svg width="16" height="15" viewBox="0 0 16 15" fill="none" xmlns="http://www.w3.org/2000/svg">
<path d="M8 0C9.06087 0 10.0783 0.395088 10.8284 1.09835C11.5786 1.80161 12 2.75544 12 3.75C12 4.74456 11.5786 5.69839 10.8284 6.40165C10.0783 7.10491 9.06087 7.5 8 7.5C6.93913 7.5 5.92172 7.10491 5.17157 6.40165C4.42143 5.69839 4 4.74456 4 3.75C4 2.75544 4.42143 1.80161 5.17157 1.09835C5.92172 0.395088 6.93913 0 8 0ZM8 9.375C12.42 9.375 16 11.0531 16 13.125V15H0V13.125C0 11.0531 3.58 9.375 8 9.375Z" fill="#3AC569"/>
</svg>
