<svg width="18" height="18" viewBox="0 0 18 18" fill="none" xmlns="http://www.w3.org/2000/svg">
<path fill-rule="evenodd" clip-rule="evenodd" d="M0 9C0 4.02331 4.02331 0 9 0C13.9804 0 18 4.01963 18 9C18 13.9804 13.9767 18 9 18C4.02331 18 0 13.9767 0 9ZM9.76564 16.0859V16.4687C13.292 16.108 16.108 13.292 16.4687 9.76564H16.0859C15.6663 9.76564 15.3202 9.41963 15.3202 9C15.3202 8.58037 15.6663 8.23436 16.0859 8.23436H16.465C16.108 4.71166 13.292 1.89571 9.76564 1.53497V1.8773C9.76564 2.29693 9.41963 2.64295 9 2.64295C8.58037 2.64295 8.23436 2.29693 8.23436 1.8773V1.53865C4.71166 1.89571 1.89571 4.71166 1.53497 8.23804H1.8773C2.29693 8.23804 2.64295 8.58405 2.64295 9.00368C2.64295 9.42331 2.29693 9.76933 1.8773 9.76933H1.53497C1.89202 13.292 4.70798 16.108 8.23436 16.4687V16.0859C8.23436 15.6663 8.58037 15.3202 9 15.3202C9.41963 15.3202 9.76564 15.6663 9.76564 16.0859ZM8.23434 5.36317C8.23434 4.94354 8.58036 4.59752 8.99999 4.59752C9.4233 4.59752 9.76563 4.93986 9.76931 5.36317V8.99998C9.76931 9.19139 9.69201 9.34599 9.61471 9.4601L5.89692 13.9803C5.74232 14.1718 5.28956 14.4073 4.86256 14.0945C4.55704 13.8257 4.47974 13.3693 4.74845 13.0233L8.23434 8.73127V5.36317Z" fill="#3AC569"/>
</svg>
