<svg width="17" height="18" viewBox="0 0 17 18" fill="none" xmlns="http://www.w3.org/2000/svg">
<path d="M6.31429 0.0102234C7.98894 0.0102234 9.595 0.712813 10.7792 1.96343C11.9633 3.21405 12.6286 4.91025 12.6286 6.67889C12.6286 8.33067 12.0554 9.84907 11.1131 11.0187L11.3754 11.2957H12.1429L17 16.4254L15.5429 17.9643L10.6857 12.8346V12.0241L10.4234 11.7471C9.316 12.7423 7.87829 13.3476 6.31429 13.3476C4.63963 13.3476 3.03357 12.645 1.84941 11.3944C0.665253 10.1437 0 8.44753 0 6.67889C0 4.91025 0.665253 3.21405 1.84941 1.96343C3.03357 0.712813 4.63963 0.0102234 6.31429 0.0102234ZM6.31429 2.06212C3.88571 2.06212 1.94286 4.11402 1.94286 6.67889C1.94286 9.24376 3.88571 11.2957 6.31429 11.2957C8.74286 11.2957 10.6857 9.24376 10.6857 6.67889C10.6857 4.11402 8.74286 2.06212 6.31429 2.06212Z" fill="white"/>
</svg>
