<svg width="18" height="20" viewBox="0 0 18 20" fill="none" xmlns="http://www.w3.org/2000/svg">
<path d="M3.62 8.23743C5.06 11.2263 7.38 13.6765 10.21 15.1973L12.41 12.8738C12.69 12.5781 13.08 12.4936 13.43 12.6098C14.55 13.0005 15.75 13.2118 17 13.2118C17.2652 13.2118 17.5196 13.323 17.7071 13.5211C17.8946 13.7192 18 13.9878 18 14.2679V17.9643C18 18.2444 17.8946 18.5131 17.7071 18.7111C17.5196 18.9092 17.2652 19.0205 17 19.0205C12.4913 19.0205 8.1673 17.1289 4.97918 13.7618C1.79107 10.3948 0 5.82807 0 1.06635C0 0.786246 0.105357 0.517617 0.292893 0.319555C0.48043 0.121493 0.734784 0.0102234 1 0.0102234H4.5C4.76522 0.0102234 5.01957 0.121493 5.20711 0.319555C5.39464 0.517617 5.5 0.786246 5.5 1.06635C5.5 2.3865 5.7 3.65385 6.07 4.83671C6.18 5.20635 6.1 5.61824 5.82 5.91396L3.62 8.23743Z" fill="white"/>
</svg>
