<svg width="163" height="26" viewBox="0 0 163 26" fill="none" xmlns="http://www.w3.org/2000/svg">
<path d="M120 12.1439H117.091V9.07681H114.182V12.1439H111.273V15.2109H114.182V18.278H117.091V15.2109H120M98.1818 12.1439V15.8244H104C103.709 17.3579 102.255 20.4249 98.1818 20.4249C94.6909 20.4249 91.9273 17.3579 91.9273 13.6774C91.9273 9.99693 94.6909 6.92987 98.1818 6.92987C100.218 6.92987 101.527 7.84999 102.255 8.61675L105.018 5.8564C103.273 4.01616 100.945 2.94269 98.1818 2.94269C92.5091 2.94269 88 7.69664 88 13.6774C88 19.6582 92.5091 24.4121 98.1818 24.4121C104 24.4121 107.927 20.1182 107.927 13.9841C107.927 13.2173 107.927 12.7573 107.782 12.1439H98.1818Z" fill="white"/>
<path d="M52.096 24.8936C53.2 25.2346 54.3155 25.4345 55.5 25.4345C58.55 25.4345 61.4751 24.1958 63.6317 21.9909C65.7884 19.786 67 16.7956 67 13.6774C67 12.1334 66.7025 10.6046 66.1246 9.17815C65.5467 7.75172 64.6996 6.45563 63.6317 5.36389C62.5639 4.27214 61.2961 3.40612 59.9009 2.81527C58.5056 2.22442 57.0102 1.92032 55.5 1.92032C53.9898 1.92032 52.4944 2.22442 51.0991 2.81527C49.7039 3.40612 48.4361 4.27214 47.3683 5.36389C45.2116 7.56876 44 10.5592 44 13.6774C44 18.6741 47.0705 22.9655 51.406 24.6585C51.3025 23.7414 51.199 22.2248 51.406 21.1784L52.7285 15.3704C52.7285 15.3704 52.395 14.6885 52.395 13.6068C52.395 11.9844 53.384 10.7734 54.511 10.7734C55.5 10.7734 55.96 11.5141 55.96 12.4664C55.96 13.4775 55.3045 14.9236 54.971 16.311C54.7755 17.4632 55.569 18.4743 56.719 18.4743C58.766 18.4743 60.353 16.2404 60.353 13.0895C60.353 10.2678 58.375 8.33968 55.5345 8.33968C52.2915 8.33968 50.3825 10.8087 50.3825 13.407C50.3825 14.4181 50.7045 15.441 51.2335 16.1111C51.337 16.1816 51.337 16.2757 51.3025 16.4521L50.969 17.7336C50.969 17.9335 50.8425 18.004 50.647 17.8629C49.175 17.2045 48.324 15.0647 48.324 13.3364C48.324 9.6212 50.9 6.24692 55.868 6.24692C59.824 6.24692 62.906 9.15092 62.906 13.0072C62.906 17.0517 60.4565 20.2966 56.949 20.2966C55.8335 20.2966 54.741 19.6853 54.35 18.9681L53.5795 21.7545C53.315 22.7656 52.5905 24.1177 52.096 24.9289V24.8936Z" fill="white"/>
<path d="M23 5.34823C22.1534 5.7692 21.2409 6.04583 20.2954 6.17814C21.2629 5.54067 22.0105 4.53034 22.3623 3.31555C21.4498 3.91693 20.4383 4.3379 19.3719 4.57845C18.5033 3.54407 17.283 2.94269 15.8977 2.94269C13.3141 2.94269 11.2032 5.25201 11.2032 8.10257C11.2032 8.51151 11.2471 8.90843 11.3241 9.28129C7.41013 9.06479 3.92495 7.00805 1.60516 3.89288C1.19837 4.65062 0.967495 5.54067 0.967495 6.47883C0.967495 8.27096 1.79207 9.85861 3.0674 10.7607C2.28681 10.7607 1.56119 10.5201 0.923518 10.1593C0.923518 10.1593 0.923518 10.1593 0.923518 10.1954C0.923518 12.6972 2.55067 14.79 4.70555 15.2591C4.30975 15.3793 3.89197 15.4395 3.46319 15.4395C3.16635 15.4395 2.8695 15.4034 2.58365 15.3432C3.17734 17.3759 4.90344 18.8914 6.98136 18.9275C5.3762 20.3227 3.34226 21.1406 1.12142 21.1406C0.74761 21.1406 0.373805 21.1165 0 21.0684C2.08891 22.5358 4.57361 23.3898 7.23423 23.3898C15.8977 23.3898 20.6582 15.5237 20.6582 8.70396C20.6582 8.47543 20.6582 8.25893 20.6472 8.0304C21.5707 7.30874 22.3623 6.39464 23 5.34823Z" fill="white"/>
<path d="M156.514 15.0065C156.606 14.2305 156.675 13.4545 156.675 12.6551C156.675 11.8556 156.606 11.0796 156.514 10.3036H160.401C160.585 11.0561 160.7 11.8438 160.7 12.6551C160.7 13.4663 160.585 14.254 160.401 15.0065M154.478 21.5434C155.168 20.2384 155.698 18.8275 156.066 17.3579H159.458C158.354 19.2978 156.594 20.8027 154.478 21.5434ZM154.191 15.0065H148.809C148.694 14.2305 148.625 13.4545 148.625 12.6551C148.625 11.8556 148.694 11.0678 148.809 10.3036H154.191C154.295 11.0678 154.375 11.8556 154.375 12.6551C154.375 13.4545 154.295 14.2305 154.191 15.0065ZM151.5 22.0137C150.545 20.6028 149.775 19.0391 149.304 17.3579H153.696C153.225 19.0391 152.455 20.6028 151.5 22.0137ZM146.9 7.95222H143.542C144.635 6.00055 146.405 4.49564 148.51 3.76671C147.82 5.07174 147.302 6.48259 146.9 7.95222ZM143.542 17.3579H146.9C147.302 18.8275 147.82 20.2384 148.51 21.5434C146.405 20.8027 144.635 19.2978 143.542 17.3579ZM142.599 15.0065C142.415 14.254 142.3 13.4663 142.3 12.6551C142.3 11.8438 142.415 11.0561 142.599 10.3036H146.486C146.394 11.0796 146.325 11.8556 146.325 12.6551C146.325 13.4545 146.394 14.2305 146.486 15.0065M151.5 3.28467C152.455 4.69551 153.225 6.27096 153.696 7.95222H149.304C149.775 6.27096 150.545 4.69551 151.5 3.28467ZM159.458 7.95222H156.066C155.698 6.48259 155.168 5.07174 154.478 3.76671C156.594 4.5074 158.354 6.00055 159.458 7.95222ZM151.5 0.89798C145.14 0.89798 140 6.18866 140 12.6551C140 15.7732 141.212 18.7637 143.368 20.9686C144.436 22.0603 145.704 22.9263 147.099 23.5172C148.494 24.108 149.99 24.4121 151.5 24.4121C154.55 24.4121 157.475 23.1734 159.632 20.9686C161.788 18.7637 163 15.7732 163 12.6551C163 11.1111 162.703 9.58225 162.125 8.15582C161.547 6.72938 160.7 5.43329 159.632 4.34155C158.564 3.2498 157.296 2.38378 155.901 1.79293C154.506 1.20209 153.01 0.89798 151.5 0.89798Z" fill="white"/>
</svg>
