<svg width="10" height="12" viewBox="0 0 10 12" fill="none" xmlns="http://www.w3.org/2000/svg">
<path d="M8.88889 10.8H1.11111V4.2H8.88889M8.88889 1.2H8.33333V0H7.22222V1.2H2.77778V0H1.66667V1.2H1.11111C0.494444 1.2 0 1.74 0 2.4V10.8C0 11.1183 0.117063 11.4235 0.325437 11.6485C0.533811 11.8736 0.816426 12 1.11111 12H8.88889C9.18357 12 9.46619 11.8736 9.67456 11.6485C9.88294 11.4235 10 11.1183 10 10.8V2.4C10 2.08174 9.88294 1.77652 9.67456 1.55147C9.46619 1.32643 9.18357 1.2 8.88889 1.2ZM7.51667 6.036L6.92778 5.4L4.21667 8.328L3.03889 7.056L2.45 7.692L4.21667 9.6L7.51667 6.036Z" fill="#3AC569"/>
</svg>
