<svg width="12" height="7" viewBox="0 0 12 7" fill="none" xmlns="http://www.w3.org/2000/svg">
<path d="M0 0V6.46154H6.18273C6.05092 6.10077 5.99101 5.74 5.99101 5.38462H2.39641C2.39641 4.79231 1.86321 4.30769 1.1982 4.30769V2.15385C1.86321 2.15385 2.39641 1.67462 2.39641 1.07692H8.38742C8.38742 1.67462 8.92661 2.15385 9.58562 2.15385V2.18615C9.98702 2.18615 10.3884 2.25077 10.7838 2.36923V0H0ZM5.39191 1.61538C4.37344 1.63154 3.59461 2.31538 3.59461 3.23077C3.59461 4.14615 4.37344 4.81385 5.39191 4.84615C5.61957 4.84615 5.85322 4.80308 6.07489 4.72231C6.23664 4.13 6.50624 3.57 7.17124 3.02077C7.09935 2.30462 6.34448 1.59923 5.39191 1.61538ZM11.1613 3.37615L8.84274 5.47615L8.03395 4.73846L7.18922 5.50308L8.83674 7L12 4.13539L11.1613 3.37615Z" fill="#3AC569"/>
</svg>
