<svg width="8" height="12" viewBox="0 0 8 12" fill="none" xmlns="http://www.w3.org/2000/svg">
<path d="M4 2.7C4.37888 2.7 4.74224 2.85804 5.01015 3.13934C5.27806 3.42064 5.42857 3.80218 5.42857 4.2C5.42857 4.39698 5.39162 4.59204 5.31983 4.77403C5.24804 4.95601 5.14281 5.12137 5.01015 5.26066C4.8775 5.39995 4.72001 5.51044 4.54669 5.58582C4.37337 5.6612 4.1876 5.7 4 5.7C3.62112 5.7 3.25776 5.54197 2.98985 5.26066C2.72194 4.97936 2.57143 4.59783 2.57143 4.2C2.57143 3.80218 2.72194 3.42064 2.98985 3.13934C3.25776 2.85804 3.62112 2.7 4 2.7ZM4 0C5.06087 0 6.07828 0.442499 6.82843 1.23015C7.57857 2.0178 8 3.08609 8 4.2C8 7.35 4 12 4 12C4 12 0 7.35 0 4.2C0 3.08609 0.421427 2.0178 1.17157 1.23015C1.92172 0.442499 2.93913 0 4 0ZM4 1.2C3.24224 1.2 2.51551 1.51607 1.97969 2.07868C1.44388 2.64129 1.14286 3.40435 1.14286 4.2C1.14286 4.8 1.14286 6 4 10.026C6.85714 6 6.85714 4.8 6.85714 4.2C6.85714 3.40435 6.55612 2.64129 6.02031 2.07868C5.48449 1.51607 4.75776 1.2 4 1.2Z" fill="#3AC569"/>
</svg>
