<svg width="15" height="15" viewBox="0 0 15 15" fill="none" xmlns="http://www.w3.org/2000/svg">
<path d="M14.8844 6.825H7.81972V8.8725H12.8351C12.5809 11.73 10.1387 12.9525 7.82743 12.9525C4.87673 12.9525 2.28814 10.6875 2.28814 7.5C2.28814 4.425 4.75347 2.0475 7.83513 2.0475C10.2157 2.0475 11.6102 3.525 11.6102 3.525L13.074 2.04C13.074 2.04 11.1941 0 7.75809 0C3.38213 0 0 3.6 0 7.5C0 11.2875 3.18182 15 7.87365 15C11.9954 15 15 12.2475 15 8.1825C15 7.32 14.8844 6.825 14.8844 6.825Z" fill="black" fill-opacity="0.5"/>
</svg>
