<svg width="17" height="13" viewBox="0 0 17 13" fill="none" xmlns="http://www.w3.org/2000/svg">
<path d="M17 1.52941C16.3743 1.79706 15.6998 1.97294 15.001 2.05706C15.7161 1.65176 16.2686 1.00941 16.5287 0.237059C15.8542 0.619412 15.1066 0.887059 14.3184 1.04C13.6764 0.382353 12.7744 0 11.7505 0C9.84082 0 8.28059 1.46824 8.28059 3.28059C8.28059 3.54059 8.3131 3.79294 8.36998 4.03C5.47706 3.89235 2.90105 2.58471 1.18642 0.604118C0.885755 1.08588 0.715105 1.65176 0.715105 2.24824C0.715105 3.38765 1.32457 4.39706 2.26721 4.97059C1.69025 4.97059 1.15392 4.81765 0.682601 4.58824C0.682601 4.58824 0.682601 4.58824 0.682601 4.61118C0.682601 6.20176 1.88528 7.53235 3.47801 7.83059C3.18547 7.90706 2.87667 7.94529 2.55975 7.94529C2.34034 7.94529 2.12094 7.92235 1.90966 7.88412C2.34847 9.17647 3.62428 10.14 5.16013 10.1629C3.97371 11.05 2.47036 11.57 0.828872 11.57C0.552581 11.57 0.276291 11.5547 0 11.5241C1.54398 12.4571 3.3805 13 5.34704 13C11.7505 13 15.2691 7.99882 15.2691 3.66294C15.2691 3.51765 15.2691 3.38 15.261 3.23471C15.9436 2.77588 16.5287 2.19471 17 1.52941Z" fill="black" fill-opacity="0.5"/>
</svg>
