<svg width="15" height="11" viewBox="0 0 15 11" fill="none" xmlns="http://www.w3.org/2000/svg">
<path d="M6 7.85714L9.8925 5.5L6 3.14286V7.85714ZM14.67 1.705C14.7675 2.07429 14.835 2.56929 14.88 3.19786C14.9325 3.82643 14.955 4.36857 14.955 4.84L15 5.5C15 7.22071 14.88 8.48571 14.67 9.295C14.4825 10.0021 14.0475 10.4579 13.3725 10.6543C13.02 10.7564 12.375 10.8271 11.385 10.8743C10.41 10.9293 9.5175 10.9529 8.6925 10.9529L7.5 11C4.3575 11 2.4 10.8743 1.6275 10.6543C0.9525 10.4579 0.5175 10.0021 0.33 9.295C0.2325 8.92571 0.165 8.43071 0.12 7.80214C0.0675001 7.17357 0.045 6.63143 0.045 6.16L0 5.5C0 3.77929 0.12 2.51429 0.33 1.705C0.5175 0.997857 0.9525 0.542143 1.6275 0.345714C1.98 0.243571 2.625 0.172857 3.615 0.125714C4.59 0.0707142 5.4825 0.0471428 6.3075 0.0471428L7.5 0C10.6425 0 12.6 0.125714 13.3725 0.345714C14.0475 0.542143 14.4825 0.997857 14.67 1.705Z" fill="black" fill-opacity="0.5"/>
</svg>
