<svg width="121" height="109" viewBox="0 0 121 109" fill="none" xmlns="http://www.w3.org/2000/svg">
<path d="M90.3389 18.8659C89.4594 16.9433 87.6923 13.6807 84.6727 10.4277C80.4173 5.84327 72.7645 0.378418 60.4742 0.378418C48.1838 0.378418 40.5313 5.84327 36.2759 10.4277C33.2563 13.6807 31.4892 16.9433 30.6098 18.8659H0V97.1248C0 103.37 5.08134 108.452 11.3273 108.452H109.621C115.867 108.452 120.948 103.37 120.948 97.1248V18.8659H90.3389ZM85.795 79.3406V72.7852H91.5085V79.3406H85.795ZM85.2303 67.7457C82.7629 67.7457 80.7555 69.7531 80.7555 72.2207V79.905C80.7555 82.3726 82.7629 84.3801 85.2303 84.3801H86.1319V89.6917H91.1714V84.3801H92.0732C94.5405 84.3801 96.548 82.3726 96.548 79.905V72.2207C96.548 69.7531 94.5405 67.7457 92.0732 67.7457H91.1714V59.0313H101.925V89.3742C101.925 91.4256 100.257 93.0942 98.2055 93.0942H22.7431C20.692 93.0942 19.0234 91.4256 19.0234 89.3742V59.0313H29.777V67.7457H28.8754C26.4081 67.7457 24.4006 69.7531 24.4006 72.2207V79.905C24.4006 82.3726 26.4081 84.3801 28.8754 84.3801H29.777V89.6917H34.8165V84.3801H35.7183C38.1857 84.3801 40.1932 82.3726 40.1932 79.905V72.2207C40.1932 69.7531 38.1857 67.7457 35.7183 67.7457H34.8165V59.0313H86.1319V67.7457H85.2303ZM29.4401 79.3406V72.7852H35.1536V79.3406H29.4401ZM34.8165 53.9918V23.9054H86.1319V53.9918H34.8165ZM39.9694 13.8561C45.1666 8.25669 52.0655 5.41793 60.4742 5.41793C68.8032 5.41793 75.6542 8.20604 80.8376 13.7052C82.5553 15.5277 83.8041 17.3679 84.6676 18.8659H36.2734C37.1092 17.4165 38.3106 15.6434 39.9694 13.8561ZM5.03952 23.9054H29.777V53.9918H11.3273C7.86013 53.9918 5.03952 51.1712 5.03952 47.7043V23.9054ZM109.621 103.412H11.3273C7.86013 103.412 5.03952 100.592 5.03952 97.1248V57.1203C6.83988 58.3265 9.00259 59.0313 11.3273 59.0313H13.9839V89.3742C13.9839 94.2041 17.9132 98.1337 22.7431 98.1337H98.2055C103.035 98.1337 106.965 94.2041 106.965 89.3742V59.0313H109.621C111.946 59.0313 114.109 58.3265 115.909 57.1206V97.1248C115.909 100.592 113.088 103.412 109.621 103.412ZM109.621 53.9918H91.1714V23.9054H115.909V47.7043C115.909 51.1712 113.088 53.9918 109.621 53.9918Z" fill="white"/>
</svg>
