<svg width="76" height="109" viewBox="0 0 76 109" fill="none" xmlns="http://www.w3.org/2000/svg">
<path d="M17.0798 103.321C17.0813 104.826 17.6833 106.269 18.7537 107.334C19.8241 108.398 21.2755 108.997 22.7898 109H53.2111C54.725 108.997 56.176 108.397 57.246 107.333C58.316 106.269 58.9177 104.826 58.9192 103.321V84.8098H17.0798V103.321ZM21.9972 89.6951H54.0037V94.321H21.9972V89.6951ZM21.9972 99.2083H54.0037V103.321C53.9983 103.528 53.9131 103.726 53.7656 103.872C53.6181 104.019 53.4196 104.104 53.2111 104.109H22.782C22.5735 104.104 22.3751 104.019 22.2276 103.872C22.0801 103.726 21.9949 103.528 21.9895 103.321L21.9972 99.2083ZM38.0005 0.00575709C30.9968 -0.000952905 24.1278 1.91792 18.1533 5.55011C12.1788 9.18229 7.33173 14.3862 4.14832 20.5861C0.964913 26.7861 -0.430711 33.7403 0.115758 40.6796C0.662228 47.6189 3.12952 54.2727 7.24471 59.905L9.3188 62.606C9.3188 62.606 11.2518 64.6173 13.1732 67.0533C14.7346 68.7673 15.9235 70.7828 16.666 72.974V81.3653H59.2923V72.974C60.039 70.7852 61.2269 68.7706 62.7833 67.0533C64.7027 64.6173 66.6493 62.6137 66.6493 62.606L68.6904 59.9952C72.8275 54.3669 75.3152 47.7098 75.8777 40.7621C76.4401 33.8144 75.0554 26.8477 71.8771 20.6344C68.6987 14.4211 63.851 9.20409 57.8713 5.56186C51.8917 1.91963 45.0138 -0.00547094 38.0005 1.16781e-05V0.00575709ZM62.9747 59.294L62.1029 60.2872C61.3084 61.1652 60.1196 62.5138 58.9192 64.041C56.8567 66.8247 54.57 69.5814 54.3767 72.974C54.3767 74.3649 54.3767 75.5463 54.3767 76.48H40.4592V52.6759C42.9656 52.0778 45.1641 50.5866 46.6379 48.4848C48.1118 46.3831 48.7584 43.817 48.4554 41.273C48.1524 38.729 46.9208 36.3839 44.994 34.6823C43.0672 32.9806 40.5791 32.0407 38.0014 32.0407C35.4238 32.0407 32.9357 32.9806 31.0089 34.6823C29.082 36.3839 27.8503 38.729 27.5473 41.273C27.2443 43.817 27.8911 46.3831 29.3649 48.4848C30.8388 50.5866 33.0373 52.0778 35.5437 52.6759V76.48H21.5835V72.974C21.3903 69.5814 19.1016 66.8266 17.043 64.041C16.407 63.2342 15.775 62.4773 15.2028 61.8068H15.2163L13.0204 59.2902C8.85941 54.529 6.16391 48.679 5.25533 42.4376C4.34675 36.1962 5.26346 29.8268 7.89608 24.0888C10.5287 18.3508 14.7662 13.4862 20.1034 10.0752C25.4405 6.66416 31.6521 4.85051 37.9975 4.85051C44.343 4.85051 50.5546 6.66416 55.8917 10.0752C61.2289 13.4862 65.4664 18.3508 68.099 24.0888C70.7316 29.8268 71.6483 36.1962 70.7398 42.4376C69.8312 48.679 67.1357 54.529 62.9747 59.2902V59.294ZM38.0024 48.1057C36.8937 48.1057 35.8099 47.779 34.8881 47.1668C33.9662 46.5546 33.2477 45.6845 32.8234 44.6665C32.3991 43.6486 32.2881 42.5284 32.5044 41.4477C32.7207 40.367 33.2546 39.3743 34.0386 38.5952C34.8226 37.8161 35.8214 37.2855 36.9088 37.0705C37.9962 36.8555 39.1233 36.9659 40.1476 37.3875C41.1719 37.8092 42.0473 38.5233 42.6633 39.4394C43.2793 40.3556 43.6081 41.4327 43.6081 42.5346C43.6081 43.2662 43.4631 43.9906 43.1814 44.6665C42.8996 45.3425 42.4867 45.9566 41.9662 46.4739C41.4456 46.9913 40.8277 47.4016 40.1476 47.6816C39.4675 47.9616 38.7385 48.1057 38.0024 48.1057Z" fill="white"/>
</svg>
