<svg width="91" height="98" viewBox="0 0 91 98" fill="none" xmlns="http://www.w3.org/2000/svg">
<path d="M68.0057 60.7645C68.0057 59.8708 67.2803 59.1454 66.3866 59.1454H56.6714C55.7777 59.1454 55.0522 59.8708 55.0522 60.7645C55.0522 61.6582 55.7777 62.3837 56.6714 62.3837H66.3866C67.2803 62.3838 68.0057 61.6584 68.0057 60.7645Z" fill="white"/>
<path d="M61.5293 18.6655V10.5695C61.5293 9.67573 60.8039 8.95032 59.9102 8.95032C59.0164 8.95032 58.291 9.67573 58.291 10.5695V18.6655C58.291 23.1296 61.9228 26.7616 66.3871 26.7616H80.9599V57.5264C80.9599 58.4201 81.6853 59.1455 82.579 59.1455C83.4728 59.1455 84.1982 58.4201 84.1982 57.5264V25.1423C84.1982 24.2485 83.4728 23.5231 82.579 23.5231H66.3871C63.7088 23.5231 61.5293 21.3437 61.5293 18.6655Z" fill="white"/>
<path d="M66.3868 39.7151H53.4331C52.5394 39.7151 51.814 40.4405 51.814 41.3342C51.814 42.2279 52.5394 42.9534 53.4331 42.9534H66.3868C67.2805 42.9534 68.0059 42.2279 68.0059 41.3342C68.0061 40.4405 67.2807 39.7151 66.3868 39.7151Z" fill="white"/>
<path d="M48.5756 41.3342C48.5756 40.4405 47.8501 39.7151 46.9564 39.7151H37.2412C36.3475 39.7151 35.6221 40.4405 35.6221 41.3342C35.6221 42.2279 36.3475 42.9534 37.2412 42.9534H46.9564C47.8501 42.9536 48.5756 42.2281 48.5756 41.3342Z" fill="white"/>
<path d="M37.2412 49.4303C36.3475 49.4303 35.6221 50.1557 35.6221 51.0494C35.6221 51.9432 36.3475 52.6686 37.2412 52.6686H40.4797C41.3734 52.6686 42.0988 51.9432 42.0988 51.0494C42.0988 50.1557 41.3734 49.4303 40.4797 49.4303H37.2412Z" fill="white"/>
<path d="M37.2412 33.2384H53.4332C54.3269 33.2384 55.0523 32.513 55.0523 31.6193C55.0523 30.7255 54.3269 30.0001 53.4332 30.0001H37.2412C36.3475 30.0001 35.6221 30.7255 35.6221 31.6193C35.6221 32.513 36.3475 33.2384 37.2412 33.2384Z" fill="white"/>
<path d="M46.9565 52.6687H63.1485C64.0422 52.6687 64.7676 51.9433 64.7676 51.0496C64.7676 50.1558 64.0422 49.4304 63.1485 49.4304H46.9565C46.0628 49.4304 45.3374 50.1558 45.3374 51.0496C45.3374 51.9433 46.0628 52.6687 46.9565 52.6687Z" fill="white"/>
<path d="M56.6714 68.8607C55.7777 68.8607 55.0522 69.5861 55.0522 70.4799C55.0522 71.3736 55.7777 72.099 56.6714 72.099H59.9099C60.8036 72.099 61.529 71.3736 61.529 70.4799C61.529 69.5861 60.8036 68.8607 59.9099 68.8607H56.6714Z" fill="white"/>
<path d="M50.1949 59.1454H37.2412C36.3475 59.1454 35.6221 59.8708 35.6221 60.7645C35.6221 61.6582 36.3475 62.3837 37.2412 62.3837H50.1949C51.0886 62.3837 51.814 61.6582 51.814 60.7645C51.814 59.8708 51.0886 59.1454 50.1949 59.1454Z" fill="white"/>
<path d="M50.1949 68.8607H37.2412C36.3475 68.8607 35.6221 69.5861 35.6221 70.4799C35.6221 71.3736 36.3475 72.099 37.2412 72.099H50.1949C51.0886 72.099 51.814 71.3736 51.814 70.4799C51.814 69.5861 51.0886 68.8607 50.1949 68.8607Z" fill="white"/>
<path d="M88.7462 67.5509L85.5077 64.3125C83.019 61.8237 79.2268 61.8286 76.7414 64.3125L55.5266 85.5273C55.2238 85.8301 55.0522 86.243 55.0522 86.6721V96.3873C55.0522 97.281 55.7777 98.0064 56.6714 98.0064H66.3866C66.8156 98.0064 67.2285 97.8349 67.5314 97.532L88.7462 76.3172C91.3256 73.7378 91.3256 70.1319 88.7462 67.5509ZM74.6477 70.9852L77.2158 73.5533L63.1481 87.621L60.5801 85.0529L74.6477 70.9852ZM58.2907 94.7679V87.3423L65.7164 94.7679H58.2907ZM68.0059 92.4784L65.4378 89.9103L79.5055 75.8426L82.0736 78.4107L68.0059 92.4784ZM86.4567 74.0277L84.3629 76.1214L76.9373 68.6957L79.031 66.602C80.3101 65.3244 81.9326 65.318 83.2182 66.602L86.4567 69.8405C87.7665 71.152 87.7665 72.7177 86.4567 74.0277Z" fill="white"/>
<path d="M50.1952 94.7679H8.09588C5.41775 94.7679 3.23828 92.5884 3.23828 89.9103V8.95032C3.23828 6.27218 5.41775 4.09271 8.09588 4.09271H59.24L74.9576 19.8103C75.5906 20.4435 76.6141 20.4435 77.2471 19.8103C77.8803 19.1773 77.8803 18.1538 77.2471 17.5208L61.0551 1.32862C60.7523 1.02426 60.3394 0.854248 59.9104 0.854248H8.09588C3.63182 0.854248 0 4.48607 0 8.95032V89.9104C0 94.3745 3.63182 98.0065 8.09607 98.0065H50.1954C51.0891 98.0065 51.8145 97.2811 51.8145 96.3874C51.8145 95.4937 51.0889 94.7679 50.1952 94.7679Z" fill="white"/>
<path d="M50.1949 78.5759H37.2412C36.3475 78.5759 35.6221 79.3013 35.6221 80.1951C35.6221 81.0888 36.3475 81.8142 37.2412 81.8142H50.1949C51.0886 81.8142 51.814 81.0888 51.814 80.1951C51.814 79.3013 51.0886 78.5759 50.1949 78.5759Z" fill="white"/>
<path d="M29.1454 31.6189C29.1454 30.7252 28.42 29.9998 27.5262 29.9998H17.811C16.9173 29.9998 16.1919 30.7252 16.1919 31.6189V41.3341C16.1919 42.2278 16.9173 42.9532 17.811 42.9532H27.5262C28.42 42.9532 29.1454 42.2278 29.1454 41.3341V31.6189ZM25.9069 39.715H19.4302V33.2382H25.9069V39.715Z" fill="white"/>
<path d="M17.811 81.8144H27.5262C28.42 81.8144 29.1454 81.089 29.1454 80.1953V70.4801C29.1454 69.5864 28.42 68.861 27.5262 68.861H17.811C16.9173 68.861 16.1919 69.5864 16.1919 70.4801V80.1953C16.1919 81.089 16.9173 81.8144 17.811 81.8144ZM19.4304 72.0992H25.9071V78.576H19.4304V72.0992Z" fill="white"/>
<path d="M19.9047 61.9094C20.2091 62.2137 20.622 62.3838 21.0495 62.3838C21.103 62.3838 21.1548 62.3822 21.2098 62.3756C21.6923 62.3287 22.1278 62.0663 22.3967 61.6631L28.8734 51.9479C29.3689 51.2031 29.1681 50.1974 28.4249 49.702C27.6784 49.2048 26.6761 49.4073 26.179 50.1506L20.7984 58.2223L18.9558 56.3814C18.3227 55.7482 17.2992 55.7482 16.6662 56.3814C16.0332 57.0146 16.033 58.0379 16.6662 58.6709L19.9047 61.9094Z" fill="white"/>
</svg>
