<svg width="13" height="17" viewBox="0 0 13 17" fill="none" xmlns="http://www.w3.org/2000/svg">
<path d="M6.5 12.9524C6.93098 12.9524 7.3443 12.7818 7.64905 12.4782C7.95379 12.1745 8.125 11.7627 8.125 11.3333C8.125 10.4348 7.39375 9.71429 6.5 9.71429C6.06902 9.71429 5.6557 9.88486 5.35095 10.1885C5.04621 10.4921 4.875 10.9039 4.875 11.3333C4.875 11.7627 5.04621 12.1745 5.35095 12.4782C5.6557 12.7818 6.06902 12.9524 6.5 12.9524ZM11.375 5.66667C11.806 5.66667 12.2193 5.83724 12.524 6.14088C12.8288 6.44451 13 6.85632 13 7.28571V15.381C13 15.8104 12.8288 16.2222 12.524 16.5258C12.2193 16.8294 11.806 17 11.375 17H1.625C1.19402 17 0.780698 16.8294 0.475951 16.5258C0.171205 16.2222 0 15.8104 0 15.381V7.28571C0 6.38714 0.73125 5.66667 1.625 5.66667H2.4375V4.04762C2.4375 2.97412 2.86551 1.9446 3.62738 1.18552C4.38925 0.426444 5.42256 0 6.5 0C7.03349 0 7.56177 0.104695 8.05465 0.308107C8.54754 0.511519 8.99538 0.809664 9.37262 1.18552C9.74986 1.56138 10.0491 2.00758 10.2533 2.49866C10.4574 2.98974 10.5625 3.51608 10.5625 4.04762V5.66667H11.375ZM6.5 1.61905C5.85353 1.61905 5.23355 1.87491 4.77643 2.33036C4.31931 2.78581 4.0625 3.40352 4.0625 4.04762V5.66667H8.9375V4.04762C8.9375 3.40352 8.68069 2.78581 8.22357 2.33036C7.76645 1.87491 7.14647 1.61905 6.5 1.61905Z" fill="black" fill-opacity="0.5"/>
</svg>
