<svg width="47" height="47" viewBox="0 0 47 47" fill="none" xmlns="http://www.w3.org/2000/svg">
<path d="M6.03438 30.3344H4.51562V45.5219C4.51562 45.9775 4.81938 46.2812 5.275 46.2812H18.1844V44.7625H6.03438V30.3344Z" fill="black"/>
<path d="M6.03437 2.2375H33.3719V9.07187C33.3719 9.5275 33.6756 9.83125 34.1312 9.83125H40.9656V31.0938H42.4844V9.07187C42.4844 8.99594 42.4844 8.92 42.4084 8.84406V8.76812C42.3325 8.69219 42.3325 8.61625 42.2566 8.54031L34.6628 0.946562C34.5869 0.870625 34.5109 0.870625 34.435 0.794688H34.3591C34.2831 0.794688 34.2072 0.71875 34.1312 0.71875H5.275C4.81937 0.71875 4.51562 1.0225 4.51562 1.47812V13.6281H6.03437V2.2375ZM34.8906 3.30063L39.9025 8.3125H34.8906V3.30063Z" fill="black"/>
<path d="M9.83125 4.51562H8.3125V6.03438H9.83125V4.51562Z" fill="black"/>
<path d="M18.9438 7.5531H8.3125V9.07185H18.9438V7.5531Z" fill="black"/>
<path d="M18.9438 10.5906H8.3125V12.1093H18.9438V10.5906Z" fill="black"/>
<path d="M12.8687 4.51562H11.35V6.03438H12.8687V4.51562Z" fill="black"/>
<path d="M15.9063 4.51562H14.3875V6.03438H15.9063V4.51562Z" fill="black"/>
<path d="M26.5375 27.2969V21.5256L30.8659 17.1972C31.0938 16.9694 31.1697 16.6656 31.0178 16.3619C30.9419 16.0581 30.6381 15.9062 30.3344 15.9062H1.47813C1.0225 15.9062 0.71875 16.21 0.71875 16.6656V27.2969C0.71875 27.7525 1.0225 28.0562 1.47813 28.0562H25.7781C26.2338 28.0562 26.5375 27.7525 26.5375 27.2969ZM25.0188 21.2219V26.5375H2.2375V17.425H28.5119L25.2466 20.6903C25.0947 20.8422 25.0188 20.9941 25.0188 21.2219Z" fill="black"/>
<path d="M45.5218 34.1312H17.425C17.1212 34.1312 16.8934 34.2831 16.7415 34.5868C16.5897 34.8906 16.6656 35.1944 16.8175 35.4222L20.4625 39.7506V45.5219C20.4625 45.9775 20.7662 46.2812 21.2218 46.2812H45.5218C45.9775 46.2812 46.2812 45.9775 46.2812 45.5219V34.8906C46.2812 34.435 45.9775 34.1312 45.5218 34.1312ZM44.7625 44.7625H21.9812H21.9053V39.4469C21.9053 39.295 21.8293 39.1431 21.7534 38.9912L19.0197 35.65H44.7625V44.7625Z" fill="black"/>
<path d="M5.27498 19.7031H3.75623V21.2219H5.27498V19.7031Z" fill="black"/>
<path d="M8.31251 19.7031H6.79376V21.2219H8.31251V19.7031Z" fill="black"/>
<path d="M23.5 19.7031H9.83124V21.2219H23.5V19.7031Z" fill="black"/>
<path d="M5.27498 22.7406H3.75623V24.2593H5.27498V22.7406Z" fill="black"/>
<path d="M23.5 22.7406H6.79376V24.2593H23.5V22.7406Z" fill="black"/>
<path d="M25.0187 37.9281H23.5V39.4468H25.0187V37.9281Z" fill="black"/>
<path d="M43.2437 37.9281H26.5375V39.4468H43.2437V37.9281Z" fill="black"/>
<path d="M25.0187 40.9656H23.5V42.4843H25.0187V40.9656Z" fill="black"/>
<path d="M28.0562 40.9656H26.5375V42.4843H28.0562V40.9656Z" fill="black"/>
<path d="M43.2438 40.9656H29.575V42.4843H43.2438V40.9656Z" fill="black"/>
<path d="M38.6875 17.425H32.6125V18.9438H38.6875V17.425Z" fill="black"/>
<path d="M38.6875 20.4625H31.0938V21.9813H38.6875V20.4625Z" fill="black"/>
<path d="M38.6875 23.5H28.0563V25.0187H38.6875V23.5Z" fill="black"/>
<path d="M38.6875 26.5375H28.0563V28.0562H38.6875V26.5375Z" fill="black"/>
<path d="M9.07185 41.725H7.5531V43.2437H9.07185V41.725Z" fill="black"/>
<path d="M12.1094 41.725H10.5906V43.2437H12.1094V41.725Z" fill="black"/>
<path d="M15.1469 41.725H13.6281V43.2437H15.1469V41.725Z" fill="black"/>
<path d="M9.07185 38.6875H7.5531V40.2062H9.07185V38.6875Z" fill="black"/>
<path d="M12.1094 38.6875H10.5906V40.2062H12.1094V38.6875Z" fill="black"/>
<path d="M9.07185 35.65H7.5531V37.1688H9.07185V35.65Z" fill="black"/>
<path d="M9.07185 32.6125H7.5531V34.1313H9.07185V32.6125Z" fill="black"/>
<path d="M12.1094 35.65H10.5906V37.1688H12.1094V35.65Z" fill="black"/>
<path d="M15.1469 38.6875H13.6281V40.2062H15.1469V38.6875Z" fill="black"/>
<path d="M18.1844 41.725H16.6656V43.2437H18.1844V41.725Z" fill="black"/>
</svg>
