<svg width="164" height="36" viewBox="0 0 164 36" fill="none" xmlns="http://www.w3.org/2000/svg">
<path d="M17.5714 35.1429C27.2759 35.1429 35.1429 27.2759 35.1429 17.5714C35.1429 7.867 27.2759 0 17.5714 0C7.867 0 0 7.867 0 17.5714C0 27.2759 7.867 35.1429 17.5714 35.1429Z" fill="white"/>
<path d="M21.9889 18.2594H18.8535V29.7461H14.1031V18.2594H11.8438V14.2225H14.1031V11.6102C14.1031 9.74213 14.9904 6.81689 18.8958 6.81689L22.4145 6.83162V10.7501H19.8614C19.4426 10.7501 18.8538 10.9593 18.8538 11.8505V14.2263H22.4039L21.9889 18.2594Z" fill="#000649"/>
<path d="M60.7291 35.1429C70.4336 35.1429 78.3006 27.2759 78.3006 17.5714C78.3006 7.867 70.4336 0 60.7291 0C51.0247 0 43.1577 7.867 43.1577 17.5714C43.1577 27.2759 51.0247 35.1429 60.7291 35.1429Z" fill="#F8FAFB"/>
<path d="M71.4924 12.6283C70.7394 12.9622 69.9294 13.188 69.0799 13.2889C69.9473 12.7692 70.6129 11.947 70.927 10.9657C70.1155 11.4471 69.2162 11.7963 68.2599 11.9846C67.4938 11.1686 66.4022 10.6587 65.1934 10.6587C62.8743 10.6587 60.9934 12.5396 60.9934 14.8588C60.9934 15.188 61.0306 15.5084 61.1027 15.816C57.6121 15.6409 54.5171 13.9689 52.4454 11.427C52.0839 12.0472 51.8766 12.7692 51.8766 13.5388C51.8766 14.9956 52.6186 16.2817 53.745 17.0347C53.0568 17.0131 52.4087 16.8243 51.8427 16.5088C51.8424 16.5267 51.8424 16.5445 51.8424 16.5621C51.8424 18.5971 53.2908 20.2945 55.2118 20.6801C54.8597 20.7766 54.4879 20.8276 54.1055 20.8276C53.8342 20.8276 53.5714 20.8016 53.3152 20.7528C53.8496 22.421 55.4004 23.6354 57.2387 23.6695C55.801 24.7962 53.9902 25.4675 52.0219 25.4675C51.6836 25.4675 51.3485 25.4477 51.0205 25.4086C52.8783 26.6007 55.0865 27.2958 57.4583 27.2958C65.1837 27.2958 69.4085 20.8959 69.4085 15.3452C69.4085 15.1632 69.4044 14.9819 69.3963 14.8021C70.2176 14.2101 70.9296 13.4705 71.4924 12.6283Z" fill="#000649"/>
<path d="M103.579 35.1429C113.113 35.1429 120.842 27.2759 120.842 17.5714C120.842 7.867 113.113 0 103.579 0C94.0449 0 86.3159 7.867 86.3159 17.5714C86.3159 27.2759 94.0449 35.1429 103.579 35.1429Z" fill="white"/>
<path d="M113.894 18.9856V26.2299H109.767V19.4711C109.767 17.774 109.171 16.6151 107.677 16.6151C106.537 16.6151 105.86 17.3953 105.561 18.1508C105.452 18.4208 105.424 18.7958 105.424 19.1745V26.2296H101.297C101.297 26.2296 101.353 14.7824 101.297 13.5974H105.424V15.3875C105.416 15.4016 105.404 15.4154 105.397 15.4289H105.424V15.3875C105.973 14.5287 106.951 13.3008 109.143 13.3008C111.858 13.3008 113.894 15.1063 113.894 18.9856ZM96.9806 7.5083C95.569 7.5083 94.6455 8.45143 94.6455 9.69056C94.6455 10.9034 95.5422 11.8738 96.9264 11.8738H96.9532C98.3925 11.8738 99.2873 10.9034 99.2873 9.69056C99.26 8.45143 98.3925 7.5083 96.9806 7.5083ZM94.8908 26.2299H99.0159V13.5974H94.8908V26.2299Z" fill="#000649"/>
<path d="M146.428 35.1429C156.133 35.1429 164 27.2759 164 17.5714C164 7.867 156.133 0 146.428 0C136.724 0 128.857 7.867 128.857 17.5714C128.857 27.2759 136.724 35.1429 146.428 35.1429Z" fill="white"/>
<path d="M151.194 5.78027H141.662C137.789 5.78027 134.637 8.93176 134.637 12.8055V22.3375C134.637 26.2111 137.789 29.3628 141.663 29.3628H151.195C155.068 29.3628 158.22 26.2113 158.22 22.3375V12.8055C158.22 8.93176 155.068 5.78027 151.194 5.78027ZM155.847 22.3376C155.847 24.9073 153.764 26.9905 151.195 26.9905H141.663C139.093 26.9905 137.01 24.9073 137.01 22.3376V12.8056C137.01 10.2359 139.093 8.15266 141.663 8.15266H151.195C153.764 8.15266 155.847 10.236 155.847 12.8056V22.3376Z" fill="#000649"/>
<path d="M146.428 11.4722C143.065 11.4722 140.329 14.2084 140.329 17.5716C140.329 20.9344 143.065 23.6707 146.428 23.6707C149.792 23.6707 152.528 20.9347 152.528 17.5716C152.528 14.2084 149.792 11.4722 146.428 11.4722ZM146.428 21.2983C144.37 21.2983 142.701 19.63 142.701 17.5716C142.701 15.5132 144.37 13.8446 146.428 13.8446C148.487 13.8446 150.155 15.5131 150.155 17.5716C150.155 19.6299 148.487 21.2983 146.428 21.2983Z" fill="#000649"/>
<path d="M154.058 11.4447C154.058 12.2746 153.385 12.9475 152.555 12.9475C151.725 12.9475 151.052 12.2746 151.052 11.4447C151.052 10.6147 151.725 9.94189 152.555 9.94189C153.385 9.94189 154.058 10.6146 154.058 11.4447Z" fill="#000649"/>
</svg>
