<svg width="50" height="46" viewBox="0 0 50 46" fill="none" xmlns="http://www.w3.org/2000/svg">
<path d="M22.6965 13.7502C19.9878 12.7832 18.0663 10.1416 18.0663 7.07556C18.0663 5.19901 18.7981 3.39931 20.1005 2.07238C21.403 0.745459 23.1696 0 25.0116 0C26.8536 0 28.6201 0.745459 29.9226 2.07238C31.2251 3.39931 31.9568 5.19901 31.9568 7.07556C31.9568 10.1652 30.0122 12.7832 27.3267 13.7502V20.3776C26.5858 20.1653 25.8219 20.0474 25.0116 20.0474C24.2013 20.0474 23.4373 20.1653 22.6965 20.3776V13.7502ZM39.5966 45.0477C36.9574 43.5147 35.7073 40.5194 36.2166 37.642L30.5678 34.3165C31.679 33.2315 32.5124 31.84 32.8829 30.2362L38.5317 33.5617C40.7078 31.6513 43.9026 31.274 46.5187 32.807C49.8524 34.7646 50.9868 39.0807 49.0653 42.4534C47.1438 45.8496 42.9072 47.0053 39.5966 45.0477ZM3.48131 32.7834C6.09735 31.2504 9.29217 31.6513 11.4683 33.5382L17.1403 30.2126C17.5107 31.84 18.321 33.208 19.4554 34.2929L13.7834 37.6184C14.3159 40.4958 13.0426 43.5147 10.4266 45.0477C7.09284 47.0053 2.85624 45.8496 0.934722 42.4534C-0.986796 39.0807 0.147594 34.741 3.48131 32.7834ZM29.6417 28.3022C29.6417 29.5533 29.1539 30.7531 28.2856 31.6377C27.4173 32.5223 26.2396 33.0193 25.0116 33.0193C22.4418 33.0193 20.3814 30.8966 20.3814 28.3022C20.3814 27.0512 20.8692 25.8514 21.7376 24.9668C22.6059 24.0822 23.7836 23.5852 25.0116 23.5852C27.5813 23.5852 29.6417 25.7079 29.6417 28.3022ZM36.587 28.3022L36.5175 29.6466L33.1144 27.6183C32.8829 25.0947 31.5633 22.9012 29.6417 21.5097V17.4766C33.7394 19.3163 36.587 23.4673 36.587 28.3022ZM31.8874 37.8071C29.9659 39.2458 27.5813 40.0948 25.0116 40.0948C22.4418 40.0948 20.0573 39.2458 18.1358 37.7363L21.539 35.7788C22.6039 36.274 23.7846 36.5571 25.0116 36.5571C26.2386 36.5571 27.3961 36.274 28.4842 35.7788L31.8874 37.8071ZM13.5056 29.623L13.4362 28.3022C13.4362 23.4673 16.2837 19.3163 20.3814 17.5002V21.5333C18.4599 22.9012 17.1403 25.0947 16.9088 27.5947L13.5056 29.623Z" fill="#FEFEFE"/>
</svg>
